<svg width="150" height="95" viewBox="0 0 150 95" fill="none" xmlns="http://www.w3.org/2000/svg">
<path d="M106.903 2.22352C103.473 0.864023 101.446 0.436939 97.1496 0.169236C95.3244 0.0552664 90.9598 -0.0189321 87.4505 0.0042376C80.4334 0.0505769 78.2074 0.376835 74.3333 1.9267C72.417 2.69349 71.4219 2.8754 68.2304 3.04385C66.1332 3.15437 63.3319 3.48532 62.0054 3.77933C58.5755 4.53954 57.5334 4.40489 54.3055 2.78551C50.8786 1.06595 48.8658 0.614153 45.6002 0.831447C40.5387 1.16835 35.9808 3.16626 29.1019 8.06382C23.6003 11.9807 23.8667 11.8367 20.1013 12.9313C16.6029 13.9483 15.4064 14.4298 13.8113 15.4637C12.725 16.1676 8.48241 17.3395 7.0211 17.3392C6.49229 17.3392 5.32265 17.0574 4.42189 16.713C2.4324 15.9525 1.59952 15.9281 0.642731 16.6019C-0.00776672 17.0602 -0.0697174 17.2935 0.0774994 18.7275C0.168381 19.6133 0.607544 21.2414 1.05357 22.3457C1.74609 24.06 1.8149 24.5046 1.52481 25.3891C1.33806 25.9586 1.21324 27.5861 1.24809 29.0054C1.29634 30.9796 1.15846 31.9902 0.660782 33.3078C-0.509811 36.4072 -0.0999146 39.5019 1.69069 41.0834C2.94284 42.1893 5.64572 42.8646 7.69124 42.5825C8.78123 42.4322 9.17993 42.5168 9.70656 43.0102C10.485 43.7401 12.476 44.3522 16.4136 45.0726L19.298 45.6002L19.1383 47.0468C19.0505 47.8424 18.7645 50.7476 18.5027 53.5029C18.241 56.2583 17.6685 61.6123 17.2309 65.4009C16.5113 71.6288 16.3479 72.4463 15.5269 73.9282C15.0273 74.8297 14.6187 75.8438 14.6187 76.182C14.6187 76.5201 14.2579 77.9457 13.8169 79.35C13.0761 81.7092 12.8228 82.1046 10.4797 84.56C7.83192 87.3341 6.33107 88.4052 3.94598 89.2227C1.26707 90.1411 -0.233444 92.4843 1.85751 92.4843C2.4604 92.4843 2.79126 92.6431 2.79126 92.933C2.79126 93.4286 3.85823 93.8845 4.3307 93.5905C4.78108 93.3106 10.2681 93.0407 14.1758 93.1065C18.1725 93.1735 19.9836 92.6787 19.7023 91.5973C19.4841 90.7569 20.5442 90.2077 21.8934 90.4623C22.9078 90.6539 22.9392 90.6276 23.1291 89.4334C23.4369 87.4978 24.5054 86.1884 26.1348 85.751C28.6002 85.0891 29.4433 84.6599 28.9254 84.3305C28.5429 84.0872 28.5404 84.0393 28.9102 84.0352C29.1526 84.0327 29.2597 83.9388 29.1483 83.8267C28.8806 83.5574 29.8875 82.8007 30.5302 82.7881C31.1281 82.7762 33.8366 80.0413 35.2979 77.9736C38.0331 74.1036 39.5194 69.9005 41.5708 60.2347C42.5609 55.5704 42.6051 55.4677 43.1211 56.634C43.5167 57.5288 43.5372 57.537 43.5506 56.809C43.5637 56.1036 43.5961 56.0876 43.9702 56.6024C44.344 57.1171 44.4081 57.1205 44.7984 56.6474C45.1218 56.2557 45.2781 56.2266 45.4611 56.5247C45.6217 56.7858 45.7711 56.6324 45.9139 56.0598C46.1119 55.2664 46.1573 55.2451 46.5479 55.7629C46.9199 56.2561 46.9712 56.1396 46.9924 54.7554L47.0164 53.1898L47.7665 54.5988C48.2374 55.4833 48.5216 55.7864 48.5306 55.4135C48.5424 54.9119 48.6906 54.9727 49.4783 55.8021C49.9919 56.3425 50.4121 57.0125 50.4121 57.2909C50.4121 57.6121 50.5826 57.7311 50.879 57.6165C51.2023 57.4919 51.3458 57.6378 51.3458 58.0912C51.3458 58.6375 51.423 58.6814 51.8127 58.3561C52.2052 58.0282 52.2802 58.0846 52.2842 58.7092C52.2902 59.6054 52.8694 60.6959 52.9282 59.9216C52.9481 59.6633 53.0764 59.8042 53.2133 60.2347C53.3795 60.7566 53.4729 60.8349 53.4934 60.4695C53.5495 59.4826 54.1464 59.8959 54.1716 60.9392L54.1962 61.9567L54.5246 61.0484L54.8527 60.1401L55.6062 61.3615C58.4725 66.0077 59.9593 70.0614 60.6484 75.1071C60.8364 76.4847 61.2267 78.9041 61.5158 80.4837C61.9429 82.8169 61.9727 83.5862 61.6752 84.5847C61.1174 86.4577 60.1049 87.356 58.0741 87.7802C55.7139 88.2731 51.2241 90.421 50.4292 91.4376C49.5748 92.5303 49.6231 92.8456 50.5879 92.4765C51.6228 92.0807 51.6571 92.086 51.6571 92.6409C51.6571 93.242 52.3748 93.2389 53.5401 92.6327C54.045 92.37 54.4583 92.2645 54.458 92.3979C54.458 92.5316 56.7905 92.5933 59.6415 92.5347C63.777 92.4502 65.1991 92.5344 66.6751 92.9508C69.2323 93.6729 71.5937 93.6898 72.6491 92.9941C73.4749 92.4499 73.4886 92.3895 73.2844 90.1912C73.0995 88.2051 73.1502 87.8488 73.7198 87.1208C74.2847 86.3991 74.5325 86.3168 75.7261 86.4521C76.4753 86.5369 77.3891 86.4446 77.757 86.2464C78.3876 85.907 78.4234 85.6759 78.3776 82.2186C78.3468 79.8857 78.5298 77.4118 78.8806 75.4202C79.6292 71.1698 79.4104 67.8193 78.0216 62.2698C77.4184 59.8589 76.8258 57.2524 76.7053 56.4774L76.4859 55.0685L77.2416 55.7729C78.1178 56.5892 78.4807 56.6759 78.2258 56.0078C77.9858 55.3794 78.3926 55.4141 79.1414 56.0861C79.7316 56.6158 79.7446 56.6095 79.5255 55.9026C79.321 55.2416 79.3602 55.2041 79.9339 55.5131C80.2828 55.7009 80.6544 55.9946 80.7596 56.1659C80.8648 56.3372 81.0911 56.4774 81.2623 56.4774C81.4335 56.4774 81.487 56.3365 81.3812 56.1643C81.0793 55.6731 81.5847 55.7977 82.2125 56.3694C82.7441 56.8532 82.7818 56.85 82.7818 56.3209C82.7818 55.7739 82.8036 55.7739 83.4043 56.3209C84.0053 56.8679 84.0268 56.8679 84.0268 56.3149C84.0268 55.7964 84.0974 55.8087 84.7713 56.4458C85.316 56.9603 85.5531 57.0382 85.6546 56.7351C85.7682 56.3948 85.8852 56.3976 86.3104 56.7504C86.7608 57.1246 86.8286 57.1042 86.8327 56.5939C86.8367 56.1026 86.8853 56.0839 87.1327 56.4774C87.5106 57.0789 88.1766 57.0924 88.4088 56.5034C88.7991 55.5143 94.6356 65.4397 97.4154 71.8192C99.5649 76.7524 101.768 83.0762 101.768 84.3142C101.768 86.1393 100.531 87.123 97.5891 87.6368C94.6176 88.156 92.7859 89.0383 91.3423 90.6458C89.9813 92.1612 90.0114 92.9151 91.4394 93.0535C92.004 93.108 92.5431 93.3547 92.6371 93.6015C92.8923 94.2699 94.4072 94.1431 95.382 93.3719C96.1623 92.7545 96.2647 92.7404 96.5286 93.2154C96.8912 93.867 97.6877 93.8823 98.5785 93.2549C99.1876 92.8256 99.3405 92.824 99.9741 93.242C101.71 94.3861 111.326 94.404 114.524 93.2686C120.452 91.1649 121.77 87.5949 119.402 80.055C118.979 78.7096 118.566 76.9513 118.482 76.1478C118.399 75.3441 118.238 74.5344 118.123 74.3487C118.008 74.1612 118.137 74.0112 118.412 74.0112C118.814 74.0112 118.844 73.8904 118.572 73.3784C118.387 73.0306 118.325 72.5991 118.436 72.4194C118.546 72.24 118.39 71.8195 118.089 71.4848C117.788 71.1501 117.622 70.796 117.719 70.6973C118.082 70.3329 133.561 78.7112 134.355 79.7012C134.538 79.9298 135.067 81.3848 135.531 82.9347C136.512 86.2119 137.433 88.0176 138.256 88.2806C138.604 88.3917 140.06 87.9277 141.858 87.1324C144.348 86.0306 145.215 85.7971 146.818 85.7946C149.066 85.7914 149.27 85.5415 148.804 83.3627C148.643 82.6106 148.412 80.7977 148.292 79.334C148.164 77.7829 147.756 75.8235 147.314 74.6374C146.873 73.4517 146.478 71.5568 146.369 70.0974C146.145 67.0844 144.163 61.5175 142.983 60.5838C142.578 60.2635 140.984 59.5258 139.44 58.9441C137.09 58.0583 136.633 57.7756 136.631 57.2048C136.628 56.6302 136.481 56.5416 135.694 56.6418C134.769 56.7595 134.4 56.3635 135.149 56.0576C135.543 55.897 135.363 55.6922 134.138 54.9088C133.774 54.6761 133.757 54.5531 134.061 54.3502C134.334 54.1686 134.105 53.9235 133.302 53.5386C132.514 53.1604 132.276 52.9099 132.546 52.7421C132.824 52.5689 132.561 52.1957 131.648 51.4678C130.72 50.7285 130.468 50.3682 130.756 50.1894C131.074 49.9915 131.057 49.8246 130.671 49.3734C129.809 48.3662 129.697 48.0124 130.309 48.234C130.746 48.3922 130.698 48.2428 130.091 47.5577L129.313 46.6785L130.034 46.8573C130.728 47.0299 130.737 47.0095 130.267 46.2887C129.652 45.3441 129.657 45.2057 130.305 45.2057C130.724 45.2057 130.661 45.0275 129.994 44.3274C129.066 43.3531 128.912 42.8521 129.624 43.1273C130.226 43.3597 130.213 43.1784 129.553 42.1648C129.023 41.3514 129.025 41.3408 129.703 41.5189C130.296 41.6748 130.349 41.6194 130.084 41.1222C129.915 40.8041 129.638 40.4575 129.467 40.3517C129.297 40.2458 129.158 39.9387 129.158 39.6697C129.158 39.2699 129.243 39.2517 129.624 39.5698C130.34 40.1673 130.18 39.5893 129.313 38.4461C128.422 37.2704 128.336 36.9213 129.002 37.1784C129.578 37.4007 129.585 37.612 128.872 33.443C127.9 27.7702 126.39 22.7546 124.493 18.905C122.831 15.5301 122.315 14.7511 119.855 11.9006C115.696 7.08037 111.784 4.15787 106.903 2.22352Z" fill="#2A3959"/>
</svg>
