<svg width="2884" height="109" viewBox="0 0 2884 109" fill="none" xmlns="http://www.w3.org/2000/svg">
<path fill-rule="evenodd" clip-rule="evenodd" d="M2740.15 0.169283C2744.45 0.437106 2746.47 0.864108 2749.9 2.22373C2754.78 4.15805 2758.7 7.08042 2762.85 11.9007C2765.31 14.7513 2765.83 15.5301 2767.49 18.9051C2769.39 22.7547 2770.9 27.7704 2771.87 33.4432C2772.39 36.4505 2772.53 37.1783 2772.35 37.2672C2772.28 37.3016 2772.16 37.2406 2772 37.1786C2771.34 36.9215 2771.42 37.2706 2772.31 38.4461C2773.18 39.5894 2773.34 40.1673 2772.62 39.5699C2772.39 39.3746 2772.27 39.306 2772.21 39.3748C2772.17 39.4181 2772.16 39.5155 2772.16 39.6698C2772.16 39.9388 2772.3 40.2459 2772.47 40.3519C2772.64 40.4576 2772.92 40.8043 2773.08 41.1224C2773.35 41.6195 2773.3 41.6749 2772.7 41.5189C2772.02 41.3409 2772.02 41.3514 2772.55 42.1649C2773.21 43.1786 2773.23 43.3597 2772.62 43.1273C2771.91 42.8521 2772.07 43.3531 2772.99 44.3275C2773.66 45.0277 2773.72 45.2059 2773.31 45.2059C2772.66 45.2059 2772.65 45.3441 2773.27 46.2889C2773.51 46.6656 2773.63 46.8509 2773.58 46.9173C2773.54 46.9781 2773.37 46.9398 2773.03 46.8575L2772.31 46.6786L2773.09 47.5577C2773.7 48.243 2773.75 48.3922 2773.31 48.234C2772.7 48.0125 2772.81 48.3663 2773.67 49.3734C2773.9 49.6463 2774 49.8153 2773.97 49.9498C2773.96 50.0379 2773.88 50.1112 2773.76 50.1895C2773.47 50.3683 2773.72 50.7286 2774.65 51.4679C2775.56 52.1959 2775.82 52.5689 2775.55 52.7423C2775.41 52.8268 2775.4 52.9325 2775.53 53.0648C2775.66 53.1949 2775.91 53.3512 2776.3 53.5387C2777.1 53.9237 2777.33 54.1688 2777.06 54.3502C2776.76 54.5533 2776.77 54.6761 2777.14 54.9088C2778.36 55.6922 2778.54 55.8971 2778.15 56.0577C2777.4 56.3636 2777.77 56.7596 2778.69 56.6419C2779.48 56.5416 2779.63 56.6302 2779.63 57.2049C2779.63 57.7757 2780.09 58.0584 2782.44 58.9442C2783.32 59.2762 2784.22 59.659 2784.9 59.9859C2785.42 60.232 2785.81 60.4464 2785.98 60.5838C2787.16 61.5177 2789.15 67.0846 2789.37 70.0975C2789.48 71.557 2789.87 73.4518 2790.31 74.6375C2790.61 75.4254 2790.89 76.5543 2791.08 77.6781H2801.6L2810.7 80.242H2824.99L2836.04 76.3912L2841.89 74.252L2846.44 70.3912L2855.54 66.5401H2864.64L2869.18 63.5401L2873.08 62.253L2877.63 63.5401L2884 64.752V109H1442H0V64.752L2.77002 64.5521L9.53003 59.5921H18.6299L25.78 61.4041L39.78 38.0182L52.1201 34.8502L65.77 30.325L79.4199 17.2181L88.51 13.6002L102.16 12.7L115.16 15.4132L137.25 20.8392L144.4 17.2152L154.8 15.4151L168.45 9.99008L177.09 9.00009L182.09 12.7L198.34 22.2L206.14 31.2401L215.88 39.369L225.63 40.7252L240.58 45.7052L263.97 51.576L286.72 52.4762L293.21 48.8622L301.66 45.7042L308.16 44.348L312.71 45.7042H321.81L341.95 53.8331L354.95 58.358L371.2 60.17L386.14 56.1002H403.69L421.23 61.5162H427.08L435.53 60.169L454.38 56.1002L461.52 52.4762L485.57 53.8321L492.07 56.0992L505.71 58.3561L516.11 63.7821L523.91 61.515L533.01 57.4561L547.3 51.119H561.6L570.7 53.8321H584.99L596.04 49.763L601.89 47.5062L606.44 43.4371L615.54 39.368H624.64L629.18 36.2101L633.08 34.8541L637.63 36.2101L661.68 43.4381L677.92 56.1002L692.87 58.357L709.77 63.7831H739V63.545H740.95L750.05 66.545L755.9 67.8321L771.49 69.545L794.24 68.6842L800.73 66.545L808.53 63.545H817.63L824.78 65.2582H837.78L850.12 62.2582L863.77 57.9811L877.42 45.555L886.51 42.129L900.16 41.2782L913.16 43.8421L935.25 48.9811L942.4 45.555L952.8 43.8421L966.45 38.7H975.54L980.09 41.274L996.34 50.264L1004.14 58.828L1013.88 66.5411L1023.63 67.828L1038.58 72.5411L1061.97 78.1051L1084.72 78.9561L1091.22 75.5301L1099.66 72.5401L1106.16 71.253L1110.71 72.5401H1119.81L1139.95 80.2401L1152.95 84.5272L1169.2 86.2401L1184.14 82.389H1201.69L1219.23 87.5282H1225.08L1233.53 86.2411L1252.38 82.39L1259.52 78.9542L1283.57 80.2411L1290.07 82.39L1303.71 84.5291L1314.11 89.6681L1321.91 87.5291L1331.01 83.6681L1345.3 77.6781H1359.6L1368.7 80.242H1382.99L1394.04 76.3912L1399.89 74.252L1404.44 70.3912L1413.54 66.5401H1422.64L1427.18 63.5401L1431.08 62.253L1435.63 63.5401L1442 64.752L1444.77 64.5521L1451.53 59.5921H1460.63L1467.78 61.4041L1481.78 38.0182L1494.12 34.8502L1507.77 30.325L1521.42 17.2181L1530.51 13.6002L1544.16 12.7L1557.16 15.4132L1579.25 20.8392L1586.4 17.2152L1596.8 15.4151L1610.45 9.99008L1619.09 9.00009L1624.09 12.7L1640.34 22.2L1648.14 31.2401L1657.88 39.369L1667.63 40.7252L1682.58 45.7052L1705.97 51.576L1728.72 52.4762L1735.21 48.8622L1743.66 45.7042L1750.16 44.348L1754.71 45.7042H1763.81L1783.95 53.8331L1796.95 58.358L1813.2 60.17L1828.14 56.1002H1845.69L1863.23 61.5162H1869.08L1877.53 60.169L1896.38 56.1002L1903.52 52.4762L1927.57 53.8321L1934.07 56.0992L1947.71 58.3561L1958.11 63.7821L1965.91 61.515L1975.01 57.4561L1989.3 51.119H2003.6L2012.7 53.8321H2026.99L2038.04 49.763L2043.89 47.5062L2048.44 43.4371L2057.54 39.368H2066.64L2071.18 36.2101L2075.08 34.8541L2079.63 36.2101L2103.68 43.4381L2119.92 56.1002L2134.87 58.357L2151.77 63.7831H2181V63.545H2182.95L2192.05 66.545L2197.9 67.8321L2213.49 69.545L2236.24 68.6842L2242.73 66.545L2250.53 63.545H2259.63L2266.78 65.2582H2279.78L2292.12 62.2582L2305.77 57.9811L2319.42 45.555L2328.51 42.129L2342.16 41.2782L2355.16 43.8421L2377.25 48.9811L2384.4 45.555L2394.8 43.8421L2408.45 38.7H2417.54L2422.09 41.274L2438.34 50.264L2446.14 58.828L2455.88 66.5411L2465.63 67.828L2480.58 72.5411L2503.97 78.1051L2526.72 78.9561L2533.22 75.5301L2541.66 72.5401L2548.16 71.253L2552.71 72.5401H2561.81L2581.95 80.2401L2594.95 84.5272L2611.2 86.2401L2626.14 82.389H2643.69L2652.95 85.1034C2653.12 84.9298 2653.3 84.7489 2653.48 84.5602C2655.82 82.1046 2656.08 81.7093 2656.82 79.3502C2657.26 77.9459 2657.62 76.5201 2657.62 76.182C2657.62 75.8438 2658.03 74.8297 2658.53 73.9283C2659.35 72.4464 2659.51 71.629 2660.23 65.401C2660.52 62.9024 2660.87 59.723 2661.15 57.0572C2661.29 55.6808 2661.41 54.4413 2661.5 53.503C2661.76 50.7477 2662.05 47.8424 2662.14 47.047L2662.3 45.6002L2659.41 45.0726C2655.48 44.3524 2653.48 43.7401 2652.71 43.0103C2652.18 42.5169 2651.78 42.4322 2650.69 42.5826C2648.65 42.8646 2645.94 42.1893 2644.69 41.0836C2642.9 39.502 2642.49 36.4073 2643.66 33.308C2644.16 31.9903 2644.3 30.9796 2644.25 29.0055C2644.21 27.5863 2644.34 25.9586 2644.52 25.3893C2644.81 24.5047 2644.75 24.0602 2644.05 22.3458C2643.61 21.2415 2643.17 19.6134 2643.08 18.7276C2642.93 17.2936 2642.99 17.0604 2643.64 16.6019C2644.6 15.9281 2645.43 15.9525 2647.42 16.713C2648.32 17.0575 2649.49 17.3392 2650.02 17.3392C2651.48 17.3397 2655.73 16.1676 2656.81 15.4637C2658.41 14.4298 2659.6 13.9483 2663.1 12.9315C2664.52 12.5179 2665.37 12.2811 2666.17 11.9354C2667.49 11.3661 2668.68 10.5011 2672.1 8.06381C2678.98 3.16635 2683.54 1.16855 2688.6 0.831637C2691.87 0.614352 2693.88 1.06601 2697.31 2.78549C2700.53 4.40488 2701.58 4.53964 2705.01 3.77939C2706.33 3.48545 2709.13 3.15439 2711.23 3.04404C2714.42 2.87558 2715.42 2.6937 2717.33 1.92685C2721.21 0.377047 2723.43 0.0506311 2730.45 0.00424441C2733.96 -0.0189489 2738.32 0.0552698 2740.15 0.169283ZM2666.79 87.5282H2667.08L2675.53 86.2411L2694.38 82.39L2701.52 78.9542L2704.27 79.1014C2704.04 77.7066 2703.79 76.1234 2703.65 75.1073C2702.96 70.0616 2701.47 66.0079 2698.61 61.3617L2697.85 60.1402L2697.52 61.0484L2697.2 61.9569L2697.17 60.9393C2697.15 59.8961 2696.55 59.4828 2696.49 60.4696C2696.47 60.8351 2696.38 60.7567 2696.21 60.2347C2696.16 60.054 2696.1 59.9244 2696.05 59.8539C2695.99 59.7564 2695.94 59.7718 2695.93 59.9217C2695.87 60.6959 2695.29 59.6056 2695.28 58.7093C2695.28 58.0848 2695.21 58.0282 2694.81 58.3563C2694.42 58.6815 2694.35 58.6375 2694.35 58.0914C2694.35 57.6378 2694.2 57.492 2693.88 57.6165C2693.72 57.6793 2693.59 57.6722 2693.51 57.6004C2693.45 57.5409 2693.41 57.4369 2693.41 57.2911C2693.41 57.0125 2692.99 56.3426 2692.48 55.8021C2691.69 54.9728 2691.54 54.912 2691.53 55.4137C2691.52 55.7865 2691.24 55.4835 2690.77 54.599L2690.02 53.1898L2689.99 54.7555C2689.97 56.1397 2689.92 56.2562 2689.55 55.763C2689.16 55.2452 2689.11 55.2665 2688.91 56.0599C2688.77 56.6324 2688.62 56.786 2688.46 56.5248C2688.28 56.2267 2688.12 56.2557 2687.8 56.6476C2687.41 57.1207 2687.34 57.1173 2686.97 56.6024C2686.78 56.3346 2686.67 56.2105 2686.62 56.2525C2686.57 56.2911 2686.56 56.4708 2686.55 56.8092C2686.54 57.5372 2686.52 57.5289 2686.12 56.6341C2685.6 55.4679 2685.56 55.5704 2684.57 60.2347C2682.52 69.9005 2681.03 74.1036 2678.3 77.9737C2676.84 80.0414 2674.13 82.7762 2673.53 82.7882C2672.89 82.8009 2671.88 83.5575 2672.15 83.8268C2672.26 83.9388 2672.15 84.0328 2671.91 84.0353C2671.54 84.0394 2671.54 84.0873 2671.93 84.3307C2672.44 84.66 2671.6 85.0892 2669.13 85.7511C2668.12 86.024 2667.32 86.6363 2666.79 87.5282ZM2721.41 80.0184L2725.57 80.2411L2732.07 82.39L2744.77 84.3814C2744.77 84.3592 2744.77 84.3368 2744.77 84.3143C2744.77 83.0763 2742.56 76.7525 2740.42 71.8192C2737.64 65.4398 2731.8 55.5145 2731.41 56.5035C2731.18 57.0924 2730.51 57.079 2730.13 56.4774C2730 56.2621 2729.92 56.1703 2729.88 56.2118C2729.85 56.2462 2729.83 56.3717 2729.83 56.5941C2729.83 57.1043 2729.76 57.1246 2729.31 56.7506C2728.89 56.3978 2728.77 56.3949 2728.65 56.7352C2728.58 56.9632 2728.42 56.9754 2728.12 56.7484C2728.02 56.6737 2727.91 56.5731 2727.77 56.4459C2727.1 55.8087 2727.03 55.7965 2727.03 56.315C2727.03 56.868 2727.01 56.868 2726.4 56.3209C2725.8 55.774 2725.78 55.774 2725.78 56.3209C2725.78 56.8502 2725.74 56.8534 2725.21 56.3695C2724.58 55.7977 2724.08 55.6732 2724.38 56.1644C2724.49 56.3365 2724.43 56.4774 2724.26 56.4774C2724.09 56.4774 2723.86 56.3373 2723.76 56.1661C2723.65 55.9947 2723.28 55.701 2722.93 55.5133C2722.36 55.2042 2722.32 55.2418 2722.53 55.9027C2722.74 56.6097 2722.73 56.6158 2722.14 56.0863C2721.39 55.4142 2720.99 55.3795 2721.23 56.0079C2721.48 56.6759 2721.12 56.5892 2720.24 55.773L2719.49 55.0687L2719.71 56.4774C2719.83 57.2525 2720.42 59.859 2721.02 62.2699C2722.41 67.8194 2722.63 71.1698 2721.88 75.4203C2721.64 76.7921 2721.48 78.3927 2721.41 80.0184ZM2763.36 87.6803L2763.91 87.5291L2773.01 83.6681L2778.09 81.5394C2777.77 80.5929 2777.48 79.858 2777.35 79.7013C2776.56 78.7113 2761.08 70.3331 2760.72 70.6974C2760.62 70.796 2760.79 71.1502 2761.09 71.485C2761.39 71.8197 2761.55 72.2401 2761.44 72.4195C2761.33 72.5992 2761.39 73.0306 2761.57 73.3785C2761.7 73.6273 2761.76 73.7838 2761.75 73.8788C2761.73 73.9793 2761.62 74.0113 2761.41 74.0113C2761.14 74.0113 2761.01 74.1612 2761.12 74.3487C2761.18 74.4378 2761.24 74.6705 2761.31 74.9771C2761.37 75.3099 2761.44 75.7296 2761.48 76.1478C2761.57 76.9515 2761.98 78.7098 2762.4 80.055C2763.4 83.2437 2763.75 85.7223 2763.36 87.6803Z" fill="#2A3959"/>
</svg>
