<svg id="bear-land" xmlns="http://www.w3.org/2000/svg" width="1442" height="100" viewBox="0 0 1442 100">
  <path id="bear-land-2" data-name="bear-land" d="M1442,55.752V100H0V55.752l2.77-.2,6.76-4.96h9.1l7.15,1.812,14-23.386,12.34-3.168,13.65-4.525L79.42,8.218,88.51,4.6l13.65-.9,13,2.713,22.09,5.426,7.15-3.624,10.4-1.8L168.45.99,177.09,0l5,3.7,16.25,9.5,7.8,9.04,9.74,8.129,9.75,1.356,14.95,4.98,23.39,5.871,22.75.9,6.49-3.614,8.45-3.158,6.5-1.356,4.55,1.356h9.1l20.14,8.129,13,4.525,16.25,1.812L386.14,47.1h17.55l17.54,5.416h5.85l8.45-1.347L454.38,47.1l7.14-3.624,24.05,1.356,6.5,2.267,13.64,2.257,10.4,5.426,7.8-2.267,9.1-4.059,14.29-6.337h14.3l9.1,2.713h14.29l11.05-4.069,5.85-2.257,4.55-4.069,9.1-4.069h9.1l4.54-3.158,3.9-1.356,4.55,1.356,24.05,7.228L677.92,47.1l14.95,2.257,16.9,5.426H739v-.238h1.95l9.1,3,5.85,1.287,15.59,1.713,22.75-.861,6.49-2.139,7.8-3h9.1l7.15,1.713h13l12.34-3,13.65-4.277,13.65-12.426,9.09-3.426,13.65-.851,13,2.564,22.09,5.139,7.15-3.426,10.4-1.713L966.45,29.7h9.09l4.55,2.574,16.25,8.99,7.8,8.564,9.74,7.713,9.75,1.287,14.95,4.713,23.39,5.564,22.75.851,6.5-3.426,8.44-2.99,6.5-1.287,4.55,1.287h9.1l20.14,7.7,13,4.287,16.25,1.713,14.94-3.851h17.55l17.54,5.139h5.85l8.45-1.287,18.85-3.851,7.14-3.436,24.05,1.287,6.5,2.149,13.64,2.139,10.4,5.139,7.8-2.139,9.1-3.861,14.29-5.99h14.3l9.1,2.564h14.29l11.05-3.851,5.85-2.139,4.55-3.861,9.1-3.851h9.1l4.54-3,3.9-1.287,4.55,1.287Z" fill="#2a3959" fill-rule="evenodd"/>
  <path id="bear-land-3" data-name="bear-land" d="M1442,55.752V100H0V55.752l2.77-.2,6.76-4.96h9.1l7.15,1.812,14-23.386,12.34-3.168,13.65-4.525L79.42,8.218,88.51,4.6l13.65-.9,13,2.713,22.09,5.426,7.15-3.624,10.4-1.8L168.45.99,177.09,0l5,3.7,16.25,9.5,7.8,9.04,9.74,8.129,9.75,1.356,14.95,4.98,23.39,5.871,22.75.9,6.49-3.614,8.45-3.158,6.5-1.356,4.55,1.356h9.1l20.14,8.129,13,4.525,16.25,1.812L386.14,47.1h17.55l17.54,5.416h5.85l8.45-1.347L454.38,47.1l7.14-3.624,24.05,1.356,6.5,2.267,13.64,2.257,10.4,5.426,7.8-2.267,9.1-4.059,14.29-6.337h14.3l9.1,2.713h14.29l11.05-4.069,5.85-2.257,4.55-4.069,9.1-4.069h9.1l4.54-3.158,3.9-1.356,4.55,1.356,24.05,7.228L677.92,47.1l14.95,2.257,16.9,5.426H739v-.238h1.95l9.1,3,5.85,1.287,15.59,1.713,22.75-.861,6.49-2.139,7.8-3h9.1l7.15,1.713h13l12.34-3,13.65-4.277,13.65-12.426,9.09-3.426,13.65-.851,13,2.564,22.09,5.139,7.15-3.426,10.4-1.713L966.45,29.7h9.09l4.55,2.574,16.25,8.99,7.8,8.564,9.74,7.713,9.75,1.287,14.95,4.713,23.39,5.564,22.75.851,6.5-3.426,8.44-2.99,6.5-1.287,4.55,1.287h9.1l20.14,7.7,13,4.287,16.25,1.713,14.94-3.851h17.55l17.54,5.139h5.85l8.45-1.287,18.85-3.851,7.14-3.436,24.05,1.287,6.5,2.149,13.64,2.139,10.4,5.139,7.8-2.139,9.1-3.861,14.29-5.99h14.3l9.1,2.564h14.29l11.05-3.851,5.85-2.139,4.55-3.861,9.1-3.851h9.1l4.54-3,3.9-1.287,4.55,1.287Z" fill="#2a3959" fill-rule="evenodd"/>
</svg>
