<svg width="215" height="413" viewBox="0 0 215 413" fill="none" xmlns="http://www.w3.org/2000/svg">
<path fill-rule="evenodd" clip-rule="evenodd" d="M22.293 47.3845C20.8489 53.8785 20.8782 59.9021 22.39 67.9439C23.6461 74.62 23.5636 75.0736 21.5174 72.7305C19.2972 70.1891 19.2707 70.2672 20.0069 77.137C20.868 85.1662 26.7663 103.471 32.8653 117.048C35.1676 122.172 38.4841 130.611 40.2356 135.803C41.9866 140.993 43.7409 145.137 44.1358 145.01C45.3094 144.633 47.7093 125.032 47.4811 117.692C47.1933 108.443 41.3973 86.5644 35.3624 71.9464C32.6293 65.3257 30.5225 59.6372 30.6813 59.3065C30.8401 58.9759 33.616 63.793 36.8499 70.0138C40.686 77.3904 44.4937 88.5539 47.8018 102.127L52.8734 122.934L59.1937 108.138C65.0429 94.4443 65.5897 92.139 66.5319 77.1858C67.09 68.3005 67.1909 52.194 66.7542 41.3962C66.2426 28.7547 66.4514 24.5631 67.3399 29.6277C68.0995 33.9538 68.9959 47.9843 69.333 60.8056L69.9448 84.1193L79.9969 64.1353C85.5258 53.1442 92.092 38.3908 94.5879 31.3495C97.085 24.3091 99.4372 18.449 99.816 18.3259C101.488 17.789 93.9536 39.5217 86.3601 57.1381C81.7964 67.7263 78.693 76.3666 79.4635 76.3394C81.642 76.2598 95.9469 68.4142 105.574 62.0186C110.361 58.8359 114.515 56.398 114.803 56.5979C115.92 57.3724 101.295 67.851 89.031 75.0638L76.175 82.6244L66.6049 102.546C60.7835 114.664 57.4904 122.781 58.1979 123.272C58.8369 123.715 65.707 123.062 73.4638 121.818C89.9374 119.178 101.535 118.626 109.469 120.105C112.712 120.709 113.814 121.253 112.042 121.374C90.9243 122.818 83.5359 123.695 70.2784 126.324L54.7618 129.401L49.2133 141.633C43.3079 154.651 32.749 170.359 25.347 177.139C19.5948 182.408 7.1087 188.097 4.80427 186.498C3.56878 185.641 2.57877 186.528 1.53236 189.431C-0.444623 194.91 1.25034 196.417 23.0342 208.543C42.6933 219.486 44.9697 221.796 47.2866 233.142C48.592 239.538 51.0792 243.048 52.3826 240.335C52.7548 239.56 51.7548 235.374 50.1582 231.032L47.2569 223.139L52.2449 227.508C54.9883 229.911 58.3177 233.307 59.6439 235.054C61.7366 237.812 61.9971 237.807 61.6148 235.02C61.2347 232.238 61.9537 232.19 66.9732 234.651C70.1611 236.214 79.6987 241.82 88.1688 247.107C107.123 258.94 111.685 261.135 112.743 258.931C113.505 257.346 96.8551 246.262 76.5716 234.852C72.9308 232.803 72.4187 232.118 74.3398 231.869C76.5353 231.584 76.6922 231.218 75.6509 228.842C74.8022 226.904 72.7683 226.007 68.4781 225.674C60.5285 225.06 29.6324 207.413 25.0395 200.864C23.3744 198.489 20.6248 195.584 18.9298 194.408L15.8482 192.269L24.8091 183.251C29.737 178.291 37.1764 169.191 41.3404 163.031C48.7577 152.056 49.0851 151.788 57.5453 149.742C62.2937 148.594 70.9991 147.956 76.8896 148.325C88.8728 149.076 104.374 146.022 102.531 143.274C101.723 142.068 103.158 140.684 107.266 138.706C115.457 134.763 120.87 130.307 123.9 125.018L126.48 120.514L115.803 113.234C107.11 107.308 103.431 105.694 96.0057 104.546L86.8842 103.136L95.3753 96.4106C106.841 87.3311 109.052 84.771 106.786 83.1983C105.188 82.0894 105.492 81.4301 109.518 77.2878C114.862 71.7916 117.8 66.0597 119.622 57.5763C121.157 50.434 119.459 48.5485 111.692 48.7708C108.817 48.8528 106.212 48.7445 105.902 48.5298C105.593 48.315 106.614 45.4061 108.171 42.063C112.085 33.6612 113.412 24.2896 110.854 23.1319C109.73 22.6226 107.877 17.384 106.736 11.4915L104.661 0.775626L101.334 4.22263C99.5052 6.11879 97.1442 9.46972 96.0869 11.6706C94.742 14.4702 93.788 15.1119 92.9078 13.8068C91.5123 11.7354 84.4169 19.5717 80.7222 27.2626L78.6036 31.6728L76.4247 25.5539C75.2268 22.1893 73.2393 18.2126 72.0082 16.7169C70.777 15.2213 68.8813 12.8993 67.7947 11.5551C66.5367 9.99727 65.4907 9.78802 64.914 10.9753C64.4158 11.9993 62.2456 14.1696 60.0908 15.7963C52.032 21.878 48.8946 39.4041 51.9587 61.2257C52.7237 66.6719 53.2659 71.3032 53.1623 71.5189C53.0593 71.7331 50.5282 68.1473 47.5386 63.549C43.0835 56.7002 40.3989 54.1091 32.6643 49.1925L23.2252 43.1917L22.293 47.3845ZM20.8472 285.798C19.1303 310.147 35.9805 335.556 54.8119 337.013C60.6865 337.468 61.5495 337.917 62.3631 340.951C63.5951 345.546 64.6071 346.02 66.1811 342.743C66.9044 341.238 69.3948 339.679 71.7163 339.279C74.0386 338.877 77.3759 337.316 79.1343 335.81C81.7095 333.603 82.8093 333.628 84.797 335.942C87.2248 338.769 87.2671 338.73 87.4689 333.452C87.6098 329.788 89.5506 324.313 93.5918 316.166C101.712 299.797 103.343 289.154 100.016 274.242C96.0553 256.494 86.1888 245.065 71.8936 241.666C62.0842 239.334 52.3319 242.309 41.5985 250.909C29.6854 260.454 21.6853 273.904 20.8472 285.798ZM80.104 190.972C78.0417 200.275 77.3069 210.806 77.9029 222.515L78.281 229.914L86.7676 235.803C102.358 246.62 118.369 248.626 132.34 241.512C143.184 235.99 147.934 231.879 152.791 223.814C157.922 215.293 158.552 208.005 155.812 188.889C154.82 181.972 154.43 175.433 154.946 174.36C155.462 173.286 158.848 171.771 162.47 170.99L169.059 169.57L164.624 167.327C162.185 166.094 159.027 164.924 157.604 164.728C155.478 164.434 155.374 163.66 157.019 160.353C158.119 158.144 160.881 154.433 163.155 152.111C165.431 149.786 167.117 147.765 166.905 147.617C166.691 147.469 162.888 149.513 158.455 152.16C154.021 154.806 150.183 156.826 149.924 156.646C149.665 156.467 149.712 152.649 150.026 148.162C150.55 140.683 148.422 129.849 146.548 130.452C146.116 130.591 145.666 133.228 145.547 136.311C145.311 142.485 143.205 147.763 140.237 149.63C138.653 150.627 137.849 149.967 135.664 145.87C134.205 143.136 132.006 140.509 130.778 140.032C129.135 139.393 129.249 140.514 131.207 144.276C132.671 147.087 133.554 150.046 133.168 150.849C132.782 151.652 128.926 151.85 124.598 151.29C114.131 149.934 106.769 151.693 98.371 157.557C92.4423 161.696 90.7325 163.872 86.7175 172.386C84.1297 177.875 81.1543 186.239 80.104 190.972ZM52.9519 309.479C53.8166 310.764 56.6074 313.258 59.1528 315.024C63.2561 317.872 63.5945 318.623 62.1371 321.657C61.1384 323.736 58.3741 325.529 55.0943 326.23C52.1251 326.864 50.3506 327.837 51.1502 328.391C51.9498 328.946 55.8303 328.258 59.7735 326.862L66.941 324.324L65.9328 330.163C64.5034 338.436 65.8112 339.927 68.2489 332.803C69.3836 329.491 71.3961 325.433 72.7232 323.788C74.9133 321.071 75.5418 321.173 79.5529 324.89L83.9717 328.986L84.3921 322.557C84.6404 318.762 84.0505 315.984 82.9514 315.774C81.8577 315.565 81.1816 312.495 81.3135 308.326L81.5374 301.231L79.3102 305.723C76.206 311.984 73.8805 311.423 72.0768 303.979C70.4726 297.362 69.5055 297.041 69.6839 303.187C69.8465 308.801 66.9029 310.284 58.8384 308.654C53.3864 307.552 51.8008 307.774 52.9519 309.479ZM66.1845 317.972C67.9708 320.662 69.1682 323.586 68.8461 324.469C68.5248 325.351 69.5213 324.395 71.0619 322.342C73.3563 319.283 74.6364 318.976 78.1475 320.636L82.4322 322.664L80.3284 316.89C78.595 312.132 78.0331 311.515 77.136 313.383C76.38 314.956 75.4911 314.918 74.2307 313.261C73.0782 311.742 71.7726 311.496 70.6533 312.587C69.683 313.531 67.5498 314.028 65.9132 313.691C63.2285 313.14 63.2553 313.559 66.1845 317.972ZM53.5707 354.313C54.6221 360.278 57.1277 368.067 59.1385 371.624C63.4371 379.235 73.6803 386.889 79.6053 386.921C81.7652 386.933 84.8094 387.798 86.3704 388.844C88.9718 390.588 88.9433 391.149 86.0207 395.63C84.269 398.316 81.9233 401.373 80.8093 402.42C79.6241 403.533 79.3128 404.692 80.0593 405.21C81.8688 406.466 88.6193 400.941 90.785 396.432C92.3378 393.2 92.7442 393.088 93.5427 395.678C94.057 397.348 93.7097 401.966 92.7701 405.938C91.5955 410.91 91.6567 412.786 92.9699 411.961C95.6348 410.285 100.096 400.677 100.212 396.365C100.329 391.966 102.275 392.942 102.957 397.742C103.399 400.854 108.025 409.479 109.983 410.837C110.404 411.13 110.007 407.235 109.099 402.183L107.45 392.998L111.453 395.185C113.948 396.55 117.014 396.624 119.6 395.382C125.522 392.534 125.576 391.19 119.806 390.297C111.379 388.995 110.792 386.349 116.853 377.008C129.384 357.698 132.123 345.452 127.459 329.578C124.763 320.402 119.299 312.185 110.641 304.286L105.166 299.291L97.474 315.418C91.5365 327.866 89.7453 332.903 89.6254 337.493C89.4262 345.074 89.398 345.113 86.3555 341.956C82.4411 337.893 71.2788 341.967 68.079 348.627L65.6564 353.67L62.3113 347.474C59.7202 342.676 58.2734 341.252 55.8958 341.159C54.2079 341.093 52.563 341.586 52.2419 342.255C51.9208 342.923 52.5187 348.35 53.5707 354.313ZM112.751 270.661C111.671 275.527 110.703 283.487 110.603 288.351C110.439 296.184 110.929 297.69 114.886 301.508C122.755 309.102 128.126 317.428 130.61 325.885C131.942 330.416 134.277 334.98 135.802 336.028C139.42 338.515 152.824 338.463 159.908 335.934C166.72 333.503 169.947 335.422 169.451 341.61C169.151 345.359 168.126 347.236 164.21 351.216C158.611 356.905 159.399 359.06 165.391 354.446C167.882 352.527 170.416 348.847 172.001 344.843L174.573 338.352L179.048 341.457C181.509 343.165 184.972 346.845 186.741 349.633C191.17 356.612 191.486 356.568 189.977 349.179C189.253 345.628 186.618 339.403 184.123 335.342L179.586 327.962L188.279 331.627C193.059 333.642 199.12 335.411 201.746 335.558C207.584 335.885 209.426 333.445 204.118 332.412C202.086 332.017 196.7 329.11 192.149 325.952L183.874 320.21L190.387 318.357C194.452 317.201 197.486 315.215 198.455 313.077C199.924 309.839 199.859 309.744 197.299 311.385C191.947 314.816 187.68 315.506 185.358 313.314C183.45 311.516 183.451 309.728 185.357 304.028C191.263 286.368 186.382 268.846 171.955 255.922C158.39 243.77 143.462 242.872 126.511 253.187C120.404 256.904 115.252 260.365 115.061 260.88C114.87 261.395 113.831 265.797 112.751 270.661ZM161.062 202.597C162.831 213.831 156.194 229.368 146.253 237.27C143.912 239.13 141.945 240.763 141.878 240.901C141.812 241.038 146.006 241.475 151.196 241.873C159.496 242.508 161.772 243.406 170.065 249.311C176.073 253.592 180.762 258.062 182.988 261.632C186.933 267.965 188.017 267.873 193.135 260.772C198.665 253.099 201.163 243.58 200.005 234.585C198.757 224.904 200.321 223.857 208.063 229.18C211.801 231.751 212.614 231.836 212.115 229.6C211.763 228.024 209.02 225.235 205.819 223.199L200.147 219.595L204.709 218.643C207.217 218.119 210.642 217.629 212.319 217.553C215.114 217.426 215.095 217.217 212.101 215.037C210.306 213.729 206.698 212.538 204.087 212.394C199.566 212.14 199.444 212.033 201.543 210.156C202.756 209.071 205.056 206.111 206.655 203.579L209.563 198.975L203.383 202.668L197.202 206.362L197.725 201.382C198.178 197.057 196.118 192.597 192.452 189.966C191.857 189.538 191.834 191.564 192.401 194.466C194.162 203.473 191.37 204.873 181.146 200.112C172.874 196.259 163.874 194.484 161.24 196.187C160.648 196.571 160.568 199.456 161.062 202.597Z" fill="#D5D5D5"/>
</svg>
