<svg width="400" height="431" viewBox="0 0 400 431" fill="none" xmlns="http://www.w3.org/2000/svg">
<g style="mix-blend-mode:darken">
<path fill-rule="evenodd" clip-rule="evenodd" d="M89.2856 45.1712C91.5675 47.9179 98.0361 52.3076 103.659 54.9243C119.03 62.0783 154.016 95.1982 166.021 113.961C168.269 117.474 168.086 115.531 165.378 107.115C156.322 78.9713 147.691 32.4382 150.53 27.0627C151.63 24.9817 193.207 95.9381 197.647 107.477L200.685 115.365L200.779 106.709C200.83 101.949 200.845 91.0324 200.813 82.4506C200.777 72.9359 201.699 66.8676 203.177 66.8985C204.776 66.9319 204.67 66.2071 202.866 64.7728C198.241 61.0934 207.389 30.3988 216.426 19.2797C223.585 10.4715 236.137 -0.696546 237.079 0.905322C237.337 1.34292 238.417 7.85219 239.481 15.3705C240.547 22.8905 243.541 38.9186 246.139 50.9895C251.201 74.5091 252.634 88.6024 252.23 110.907C252.091 118.635 252.404 124.708 252.929 124.399C253.452 124.091 255.291 120.233 257.015 115.828C264.506 96.6801 289.472 49.1407 293.184 46.9567C296.156 45.2075 295.547 52.9452 291.097 73.485C284.504 103.917 280.095 135.347 282.96 131.483C284.198 129.813 292.683 119.733 301.814 109.081C314.726 94.0211 321.417 87.695 331.912 80.6243L345.408 71.5325L349.385 78.2913C353.12 84.6381 353.011 86.5835 347.59 110.252C340.811 139.838 336.669 148.909 322.478 165.23L311.971 177.313L322.6 173.551C349.965 163.861 387.618 157.902 390.503 162.804C391.688 164.818 387.366 167.846 361.911 182.841C345.417 192.556 326.551 204.552 319.986 209.5C313.421 214.447 303.222 220.616 297.321 223.209C291.424 225.802 287.444 228.099 288.479 228.313C289.517 228.528 299.354 229.979 310.34 231.538C341.34 235.939 366.875 241.564 383.373 247.632C391.668 250.682 398.726 253.637 399.056 254.197C400.24 256.21 392.19 259.468 378.182 262.648C370.342 264.427 357.294 268.605 349.184 271.93C341.074 275.258 330.943 278.21 326.669 278.493C315.897 279.205 294.312 273.07 280.286 265.307L268.528 258.801L276.39 270.109C282.049 278.25 285.067 284.518 287.167 292.495C291.1 307.436 292.076 314.226 290.431 315.193C286.413 317.558 266.54 299.577 258.324 286.142C254.363 279.664 254.344 279.814 257.572 292.261C261.976 309.25 261.997 311.343 258.106 346.041C256.261 362.501 255.144 378.639 255.625 381.904C256.105 385.169 256.766 389.618 257.092 391.791C257.623 395.336 257.274 395.32 253.705 391.634C242.149 379.698 228.668 350.597 222.185 323.59L219.35 311.771L215.406 324.554C210.736 339.689 204.244 350.233 200.231 349.197C196.732 348.294 193.659 336.367 193.073 321.42C192.6 309.354 191.102 308.204 188.865 318.185C186.847 327.182 172.964 355.264 165.171 366.107C161.585 371.096 150.576 384.369 140.709 395.603C130.839 406.836 120.77 419.521 118.332 423.794C113.123 432.918 112.049 432.587 104.333 419.475C98.1903 409.037 96.1893 400.055 98.0852 391.433C99.3951 385.472 116.5 354.816 140.89 314.718L149.752 300.147L124.002 315.3C96.2846 331.611 88.8806 334.255 75.1282 332.749C69.5909 332.142 63.4753 333.509 53.6587 337.546C41.1717 342.682 39.9729 342.837 40.383 339.274C41.5595 329.03 61.1895 312.847 102.423 288.131L123.916 275.247L100.098 284.18C73.8076 294.041 47.5703 301.229 35.0974 301.989C23.3383 302.704 10.0263 298.733 5.04102 293.021C2.68772 290.325 0.784723 287.106 0.814016 285.868C0.924119 280.92 22.2667 259.76 36.9396 250.052C53.9464 238.799 68.0342 234.506 104.512 229.463L125.425 226.572L98.6437 219.622C77.9663 214.258 69.1729 210.888 60.0566 204.835C44.4424 194.464 35.457 182.05 33.9201 168.718C33.323 163.546 33.4375 158.956 34.175 158.522C35.9059 157.504 61.4416 164.576 73.0897 169.302C78.0431 171.311 86.4637 176.031 91.8018 179.792C102.326 187.209 124.937 198.273 125.459 196.265C125.636 195.582 124.445 194.544 122.812 193.957C110.954 189.69 60.1571 139.38 49.5372 121.384C45.2276 114.079 39.6828 95.602 40.6096 91.6358C41.2159 89.0428 61.6693 89.6086 72.9984 92.5336C83.7841 95.3182 88.098 98.213 102.124 112.086C108.495 118.389 114.003 123.634 114.365 123.744C114.726 123.852 108.638 113.888 100.838 101.602C85.0609 76.7508 79.482 63.2004 80.2081 51.4892C80.8465 41.1842 84.0969 38.9231 89.2856 45.1712ZM191.862 66.8038C192.378 67.6806 192.407 82.7508 191.892 83.054C191.692 83.1717 190.635 81.0716 189.544 78.3872C188.454 75.7028 188.433 71.8361 189.499 69.7939C190.566 67.7533 191.629 66.4077 191.862 66.8038ZM255.321 56.337C264.215 64.0877 267.609 67.4249 269.007 69.8014C270.275 71.9558 263.169 90.6639 258.682 96.9833C258.216 97.6404 257.734 93.6126 257.614 88.0309C257.494 82.4509 256.432 72.6023 255.254 66.1489C254.033 59.4557 254.061 55.2398 255.321 56.337ZM67.7908 215.647C73.0736 218.135 80.6849 221.381 84.7045 222.865L92.0107 225.559L84.2757 226.619C80.02 227.202 69.1325 229.844 60.0801 232.489L43.6188 237.302L49.9336 224.745C53.4062 217.84 56.683 211.949 57.2155 211.657C57.748 211.365 62.5064 213.16 67.7908 215.647ZM294.206 97.0638C298.475 98.166 298.918 102.988 295.178 107.627C292.998 110.331 290.876 112.457 290.465 112.351C290.052 112.246 290.297 108.651 291.008 104.366C291.72 100.079 293.16 96.7937 294.206 97.0638ZM189.749 170.512C196.431 172.493 203.22 177.603 206.439 183.073C207.697 185.212 209.447 186.539 210.327 186.021C211.207 185.503 211.485 184.329 210.945 183.41C209.435 180.846 212.891 169.461 215.675 167.823C217.258 166.891 217.219 169.935 215.564 176.302C214.143 181.767 213.598 193.215 214.351 201.742C215.106 210.27 215.265 217.517 214.707 217.846C214.148 218.174 208.15 208.113 201.38 195.488C191.645 177.335 188.857 173.12 188.053 175.341C186.058 180.856 187.765 200.573 191.074 210.252L194.438 220.098L182.092 212.187C167.893 203.093 161.959 201.267 162.789 206.244C163.584 211.021 171.419 219.227 181.108 225.424L189.752 230.957L181.432 230.852C176.856 230.794 171.396 230.735 169.3 230.719C167.204 230.704 165.298 229.54 165.064 228.132C164.83 226.725 160.344 222.377 155.096 218.469C143.564 209.886 140.123 204.609 142.995 199.908C146.288 194.516 154.14 194.644 165.291 200.274C176.001 205.683 176.616 204.792 171.41 191.399C168.313 183.432 169.403 180.343 177.576 173.915C183.116 169.56 184.878 169.067 189.749 170.512ZM227.893 165.363C235.118 167.229 236.529 179.794 231.759 199.748C229.193 210.475 230.043 210.631 236.436 200.608C242.452 191.176 244.025 192.053 240.168 202.689C237.091 211.173 232.129 217.835 229.407 217.133C226.42 216.361 224.521 205.284 224.277 187.193C223.972 164.622 224.015 164.362 227.893 165.363ZM255.162 186.032C259.43 187.567 259.78 198.645 255.915 209.864C254.144 215.005 247.174 227.887 240.427 238.488C229.031 256.395 227.536 258.049 219.345 261.796C202.731 269.401 169.843 267.283 164.538 258.268C162.419 254.666 163.631 248.754 167.329 244.638C168.767 243.037 169.138 241.303 168.155 240.785C165.334 239.3 167.66 238.703 176.737 238.577C189.372 238.403 189.877 241.714 178.003 246.844C165.883 252.08 167.399 254.247 183.923 255.312C190.263 255.721 195.902 257.201 196.455 258.602C197.01 260.002 199.987 260.951 203.072 260.711C207.883 260.336 210.254 258.769 219.735 249.682C229.642 240.188 230.942 239.353 232.279 241.624C233.942 244.45 244.186 207.882 244.978 196.285C245.497 188.688 249.985 184.17 255.162 186.032ZM345.332 157.146C348.354 159.408 351.025 161.597 351.268 162.01C351.829 162.964 334.217 166.815 331.643 166.303C330.59 166.092 332.004 163.022 334.783 159.477L339.837 153.035L345.332 157.146ZM384.104 182.865C387.111 184.753 389.46 186.643 389.323 187.063C388.43 189.835 373.211 211.871 365.45 221.629L356.121 233.358L332.663 229.252L309.204 225.146L324.022 213.998C332.173 207.866 347.796 197.581 358.74 191.14L378.64 179.43L384.104 182.865ZM305.684 281.248L322.959 285.888L322.37 301.367C322.047 309.881 322.33 319.79 323 323.388C324.177 329.696 323.969 330.027 317.159 332.68C305.674 337.153 287.997 340.464 276.065 340.38L264.92 340.301L266.194 323.664C267.342 308.651 267.78 307.335 270.68 310.189C278.498 317.877 291.49 323.171 296.013 320.509C299.091 318.698 297.901 309.104 292.16 289.449L288.41 276.605L305.684 281.248ZM189.616 341.051C192.647 358.924 206.616 359.93 214.274 342.826C215.718 339.602 217.359 336.693 217.924 336.36C219.28 335.562 224 348.369 223.389 351.193C222.54 355.122 201.146 380.547 196.223 383.479C189.171 387.676 178.867 385.541 173.172 378.701L168.434 373.009L175.872 359.954C179.965 352.774 184.529 344.397 186.017 341.339L188.723 335.778L189.616 341.051Z" fill="#D5D5D5"/>
</g>
</svg>
