<svg width="756" height="443" viewBox="0 0 756 443" fill="none" xmlns="http://www.w3.org/2000/svg">
<g clip-path="url(#clip0_159_4993)">
<path d="M377.987 443C586.743 443 755.974 343.831 755.974 221.5C755.974 99.1689 586.743 0 377.987 0C169.231 0 0 99.1689 0 221.5C0 343.831 169.231 443 377.987 443Z" fill="#7C402F"/>
<path d="M377.987 359.488C531.994 359.488 656.841 298.068 656.841 222.302C656.841 146.537 531.994 85.1167 377.987 85.1167C223.98 85.1167 99.1335 146.537 99.1335 222.302C99.1335 298.068 223.98 359.488 377.987 359.488Z" fill="#2A3959"/>
<path d="M377.987 85.1167C223.964 85.1167 99.1335 146.554 99.1335 222.302C99.1335 298.051 223.964 359.488 377.987 359.488C532.011 359.488 656.841 298.051 656.841 222.302C656.841 146.554 532.011 85.1167 377.987 85.1167ZM378.842 342.641C235.465 342.641 119.235 288.45 119.235 221.5C119.235 154.551 235.465 100.308 378.842 100.308C522.219 100.308 638.475 154.576 638.475 221.5C638.475 288.424 522.245 342.641 378.842 342.641Z" fill="#E4E9BC"/>
<path d="M185.626 201.185C196.376 206.154 209.95 211.148 209.95 211.148C209.95 211.148 220.518 212.339 226.709 215.134C232.9 217.929 238.677 220.103 242.847 221.112C246.577 221.992 266.446 228.099 282.92 221.992C290.588 219.145 293.023 212.287 293.023 208.457C293.023 204.213 291.598 201.909 287.169 199.684C281.858 197.018 283.438 195.155 283.438 195.155C283.438 195.155 298.255 196.138 298.048 207.913C297.841 219.663 287.091 224.916 286.495 225.304C285.899 225.692 268.958 234.88 238.444 227.685C207.929 220.517 167.26 195.621 167.26 195.621C167.26 195.621 145.32 180.093 145.138 179.084C145.138 179.084 174.85 196.216 185.626 201.211V201.185Z" fill="white"/>
<path d="M309.783 190.367C307.399 191.972 292.712 191.635 292.712 191.635C293.696 192.438 299.68 197.018 299.473 198.002C299.292 199.011 295.302 198.804 294.499 198.002C293.696 197.199 284.319 190.626 283.335 189.643C282.35 188.659 284.267 181.077 284.267 181.077C289.06 184.26 298.1 182.681 298.1 182.681C299.292 179.705 302.633 178.696 307.425 180.559C311 181.957 311.673 187.21 311.673 187.21C311.673 187.21 311.751 189.099 309.808 190.393L309.783 190.367Z" fill="white"/>
<path d="M305.845 230.48C302.27 229.29 300.457 230.273 300.457 230.273C300.457 230.273 312.217 218.705 314.212 207.163C316.207 195.621 313.02 182.345 311.622 180.533C311.622 180.533 314.86 181.853 316.984 179.99C316.984 179.99 323.796 165.368 324.211 162.78C324.211 162.78 324.392 217.126 310.223 234.077C310.223 234.077 309.42 231.696 305.819 230.506L305.845 230.48Z" fill="white"/>
<path d="M320.014 262.544C321.206 259.956 311.052 252.374 308.435 248.803C305.845 245.205 306.441 244.429 307.037 244.015C307.037 244.015 325.791 258.171 341.722 263.347C357.678 268.522 369.439 274.708 369.646 276.105C369.827 277.503 364.258 279.883 359.492 279.107C354.699 278.305 352.705 272.534 343.535 270.929C334.365 269.325 324.004 269.532 315.611 269.325C307.244 269.118 295.872 267.332 294.085 262.337C294.085 262.337 318.797 265.132 320.014 262.544Z" fill="white"/>
<path d="M255.203 258.171C256.214 258.378 258.389 259.361 260.773 259.775C260.773 259.775 270.15 259.982 276.937 258.766C283.723 257.576 291.08 260.371 291.08 260.371C291.08 260.371 296.856 261.354 283.697 262.751C270.538 264.149 259.581 265.132 257.586 263.14C255.592 261.147 254.193 257.964 255.203 258.171Z" fill="white"/>
<path d="M220.725 252.245C215.933 240.081 218.938 230.661 218.938 230.661C220.933 230.661 225.518 234.051 232.486 244.015C239.454 253.978 250.618 256.955 250.618 256.955C250.411 257.938 249.427 259.749 247.432 260.94C245.438 262.13 234.869 259.749 231.683 260.733C228.497 261.716 227.098 265.521 224.093 271.085C221.114 276.674 223.497 285.033 225.285 286.819C227.072 288.605 228.678 293.988 227.072 294.195C225.466 294.402 219.897 290.209 219.897 290.209C219.897 290.209 218.342 281.85 214.845 272.948C211.918 265.521 212.903 257.731 212.903 257.731C217.306 256.929 220.674 252.219 220.674 252.219L220.725 252.245Z" fill="white"/>
<path d="M176.844 248C176.041 245.801 177.363 244.947 182.155 244.533C186.947 244.144 196.246 241.013 198.655 237.623C201.039 234.233 206.349 225.33 213.55 225.123C213.55 225.123 205.572 233.016 208.758 238.813C211.944 244.584 216.348 248.363 215.545 249.372C214.742 250.355 190.755 251.106 186.17 250.899C181.585 250.718 181.533 256.955 181.119 259.931C180.704 262.933 178.191 273.207 180.86 278.253C181.792 280.013 180.134 282.756 177.932 281.98C175.731 281.178 173.555 277.477 172.881 276.131C172.337 275.07 173.943 272.12 174.461 266.556C174.979 260.992 177.647 250.148 176.844 247.975V248Z" fill="white"/>
<path d="M268.803 233.767C280.977 233.379 292.427 227.219 292.427 227.219C295.121 233.948 295.484 239.538 293.722 244.274C290.225 253.694 277.092 253.953 277.092 253.953C275.123 253.487 270.098 242.022 270.098 242.022C266.186 245.283 272.377 251.986 273.284 254.004C274.217 256.023 269.632 255.945 267.326 253.202C264.451 249.786 260.28 243.394 260.28 243.394C258.312 244.791 262.456 250.122 263.363 252.943C264.27 255.764 258.053 252.503 258.053 252.503C248.935 238.451 236.449 234.258 236.449 234.258C237.304 232.68 256.602 234.129 268.777 233.741L268.803 233.767Z" fill="white"/>
<path d="M362.704 255.971C361.512 253.978 358.067 253.487 351.721 252.4C344.882 251.209 340.945 251.598 335.764 251.002C330.583 250.407 317.01 246.422 317.01 246.422C308.643 231.696 319.6 232.68 319.6 232.68C320.61 234.077 331.36 239.46 337.551 242.048C343.742 244.636 358.482 248.621 363.688 250.226C368.869 251.831 371.071 254.211 370.656 256.799C370.268 259.387 363.869 257.99 362.678 255.997L362.704 255.971Z" fill="white"/>
<path d="M564.286 202.505C553.485 207.396 539.885 212.261 539.885 212.261C539.885 212.261 529.291 213.374 523.1 216.091C516.883 218.835 511.106 220.957 506.91 221.914C503.18 222.768 483.26 228.669 466.811 222.432C459.169 219.507 456.786 212.624 456.838 208.793C456.89 204.549 458.314 202.272 462.77 200.072C468.106 197.458 466.552 195.595 466.552 195.595C466.552 195.595 451.735 196.449 451.813 208.198C451.89 219.947 462.614 225.304 463.236 225.693C463.832 226.107 480.695 235.397 511.262 228.513C541.828 221.604 582.73 197.07 582.73 197.07C582.73 197.07 604.8 181.724 605.033 180.74C605.033 180.74 575.166 197.614 564.338 202.505H564.286Z" fill="white"/>
<path d="M440.208 190.574C442.591 192.179 457.278 191.998 457.278 191.998C456.268 192.774 450.258 197.329 450.44 198.312C450.621 199.322 454.61 199.14 455.413 198.364C456.216 197.588 465.645 191.092 466.655 190.109C467.665 189.125 465.826 181.517 465.826 181.517C461.008 184.674 451.994 182.992 451.994 182.992C450.828 179.99 447.512 178.981 442.694 180.792C439.094 182.164 438.368 187.391 438.368 187.391C438.368 187.391 438.265 189.28 440.208 190.6V190.574Z" fill="white"/>
<path d="M443.782 230.713C447.383 229.548 449.17 230.558 449.17 230.558C449.17 230.558 437.514 218.886 435.623 207.318C433.732 195.75 437.047 182.5 438.446 180.714C438.446 180.714 435.182 182.008 433.084 180.119C433.084 180.119 426.401 165.42 426.013 162.832C426.013 162.832 425.339 217.178 439.353 234.233C439.353 234.233 440.156 231.852 443.782 230.687V230.713Z" fill="white"/>
<path d="M429.328 262.648C428.162 260.06 438.394 252.581 441.011 249.01C443.627 245.464 443.031 244.636 442.461 244.248C442.461 244.248 423.603 258.223 407.595 263.269C391.586 268.29 379.774 274.371 379.567 275.769C379.36 277.166 384.903 279.599 389.721 278.848C394.513 278.098 396.56 272.327 405.756 270.826C414.925 269.299 425.313 269.609 433.68 269.48C442.047 269.351 453.444 267.668 455.283 262.7C455.283 262.7 430.52 265.262 429.354 262.674L429.328 262.648Z" fill="white"/>
<path d="M494.191 258.844C493.207 259.025 490.979 260.008 488.596 260.396C488.596 260.396 479.219 260.526 472.458 259.258C465.697 258.016 458.288 260.733 458.288 260.733C458.288 260.733 452.512 261.665 465.645 263.191C478.804 264.692 489.735 265.805 491.756 263.813C493.776 261.846 495.201 258.663 494.191 258.844Z" fill="white"/>
<path d="M528.721 253.254C533.616 241.142 530.715 231.696 530.715 231.696C528.721 231.696 524.11 235.035 517.038 244.921C509.966 254.807 498.776 257.705 498.776 257.705C498.957 258.688 499.942 260.5 501.936 261.716C503.931 262.933 514.499 260.629 517.686 261.665C520.872 262.674 522.219 266.478 525.172 272.094C528.099 277.684 525.638 286.043 523.825 287.828C522.012 289.588 520.38 294.971 521.96 295.178C523.566 295.385 529.187 291.27 529.187 291.27C529.187 291.27 530.819 282.937 534.393 274.061C537.372 266.659 536.466 258.87 536.466 258.87C532.088 258.041 528.746 253.28 528.746 253.28L528.721 253.254Z" fill="white"/>
<path d="M572.628 249.398C573.456 247.224 572.135 246.344 567.343 245.904C562.551 245.464 553.277 242.255 550.92 238.839C548.563 235.423 543.33 226.495 536.129 226.236C536.129 226.236 544.03 234.207 540.792 239.952C537.554 245.697 533.124 249.45 533.927 250.459C534.73 251.468 558.691 252.4 563.276 252.245C567.861 252.089 567.887 258.326 568.25 261.328C568.612 264.33 571.047 274.63 568.353 279.651C567.395 281.41 569.053 284.154 571.255 283.377C573.456 282.601 575.658 278.926 576.358 277.58C576.902 276.519 575.322 273.569 574.829 268.005C574.363 262.415 571.773 251.572 572.602 249.398H572.628Z" fill="white"/>
<path d="M480.799 234.336C468.624 233.844 457.226 227.608 457.226 227.608C454.455 234.31 454.066 239.9 455.776 244.636C459.195 254.082 472.302 254.47 472.302 254.47C474.297 254.03 479.4 242.617 479.4 242.617C483.26 245.904 477.043 252.581 476.11 254.574C475.152 256.592 479.737 256.54 482.094 253.823C484.995 250.433 489.243 244.093 489.243 244.093C491.212 245.516 487.016 250.795 486.083 253.59C485.151 256.411 491.393 253.202 491.393 253.202C500.641 239.227 513.178 235.138 513.178 235.138C512.35 233.56 493.025 234.828 480.851 234.31L480.799 234.336Z" fill="white"/>
<path d="M386.742 255.712C387.96 253.72 391.379 253.28 397.751 252.219C404.59 251.08 408.527 251.52 413.708 250.976C418.889 250.433 432.488 246.551 432.488 246.551C441.011 231.878 430.027 232.783 430.027 232.783C429.017 234.155 418.189 239.46 411.998 241.996C405.782 244.533 390.991 248.389 385.81 249.915C380.603 251.468 378.401 253.823 378.79 256.437C379.153 259.025 385.551 257.679 386.768 255.712H386.742Z" fill="white"/>
<path d="M129.622 300.043L137.212 309.826L97.5017 340.544L89.9119 330.762L129.622 300.043Z" fill="white"/>
<path d="M182.595 341.062L156.484 383.944L147.781 378.664L140.813 338.759L124.959 364.793L114.494 358.427L140.605 315.545L149.361 320.876L156.277 360.73L172.13 334.696L182.595 341.062Z" fill="white"/>
<path d="M190.781 344.09L213.887 351.75C219.405 353.587 223.964 356.175 227.538 359.565C231.113 362.956 233.496 366.812 234.662 371.185C235.828 375.559 235.62 380.114 234.04 384.875C232.46 389.637 229.896 393.415 226.347 396.236C222.798 399.057 218.602 400.739 213.706 401.309C208.81 401.878 203.603 401.231 198.086 399.419L174.98 391.759L190.807 344.141L190.781 344.09ZM200.495 390.129C205.572 391.811 210.079 391.837 213.991 390.181C217.902 388.524 220.596 385.445 222.099 380.916C223.601 376.387 223.29 372.272 221.14 368.623C218.99 364.974 215.39 362.283 210.286 360.601L199.536 357.029L189.745 386.557L200.495 390.129Z" fill="white"/>
<path d="M249.427 361.817L261.55 364.508L250.67 413.498L238.573 410.806L249.427 361.817Z" fill="white"/>
<path d="M302.012 411.013L277.377 407.571L271.186 417.561L258.597 415.801L289.189 369.4L301.312 371.082L318.098 424.082L305.224 422.297L302.012 410.987V411.013ZM299.369 401.749L293.619 381.537L282.558 399.394L299.395 401.749H299.369Z" fill="white"/>
<path d="M377.909 376.335L375.941 426.489L365.761 426.101L340.271 394.606L339.08 425.066L326.853 424.574L328.822 374.42L339.08 374.808L364.517 406.303L365.709 375.844L377.935 376.309L377.909 376.335Z" fill="white"/>
<path d="M458.625 399.911C460.542 401.878 461.63 404.414 461.915 407.494C462.304 411.867 460.775 415.413 457.356 418.078C453.937 420.77 448.73 422.4 441.762 423.021L414.149 425.48L409.693 375.481L435.778 373.152C442.28 372.583 447.383 373.307 451.062 375.326C454.74 377.344 456.76 380.346 457.123 384.358C457.33 386.79 456.916 389.016 455.828 391.009C454.74 393.001 453.134 394.683 451.01 395.977C454.144 396.599 456.657 397.918 458.574 399.859L458.625 399.911ZM422.775 383.115L423.837 394.891L436.115 393.804C439.172 393.545 441.425 392.82 442.928 391.682C444.43 390.543 445.078 388.99 444.897 387.049C444.715 385.108 443.809 383.711 442.151 382.857C440.493 382.029 438.136 381.744 435.079 382.003L422.801 383.09L422.775 383.115ZM447.306 412.23C448.86 411.091 449.559 409.461 449.378 407.364C449.015 403.224 445.544 401.438 438.99 402.033L424.588 403.301L425.676 415.646L440.078 414.378C443.342 414.093 445.751 413.368 447.306 412.23Z" fill="white"/>
<path d="M508.257 401.956L483.83 406.717L481.239 418.182L468.754 420.615L482.586 366.786L494.606 364.457L527.736 409.124L514.966 411.609L508.257 401.956ZM502.739 394.037L490.72 376.801L486.057 397.271L502.739 394.011V394.037Z" fill="white"/>
<path d="M567.499 343.08L583.74 390.569L574.104 393.855L538.953 373.644L548.822 402.473L537.217 406.433L520.976 358.944L530.689 355.632L565.763 375.869L555.894 347.04L567.499 343.08Z" fill="white"/>
<path d="M575.606 340.234L596.174 327.242C601.096 324.137 605.991 322.274 610.887 321.627C615.783 321.005 620.264 321.627 624.383 323.49C628.502 325.353 631.895 328.407 634.589 332.651C637.283 336.895 638.578 341.269 638.501 345.772C638.423 350.275 637.05 354.623 634.408 358.763C631.74 362.904 627.958 366.527 623.036 369.632L602.469 382.65L575.606 340.234ZM617.415 361.921C621.948 359.048 624.798 355.606 626.015 351.517C627.207 347.454 626.533 343.391 623.969 339.354C621.404 335.317 618.037 332.962 613.84 332.315C609.644 331.668 605.292 332.755 600.759 335.627L591.175 341.683L607.831 367.976L617.415 361.921Z" fill="white"/>
<path d="M175.368 58.2023C179.15 58.3058 182.44 59.2892 185.186 61.1266C187.931 62.9899 190.004 65.6296 191.351 69.0974C192.698 72.5135 192.983 75.8519 192.231 79.1127C191.48 82.3476 189.745 85.2978 187.025 87.9375C184.305 90.5771 180.73 92.751 176.327 94.4849L166.276 98.4185L171.327 111.306L159.8 115.835L141.46 69.1233L163.038 60.6608C167.442 58.9269 171.56 58.1246 175.342 58.2282L175.368 58.2023ZM179.331 80.7172C180.601 78.621 180.704 76.2659 179.694 73.678C178.658 71.0642 176.974 69.3821 174.617 68.6833C172.26 67.9846 169.359 68.321 165.887 69.6668L156.484 73.3416L162.857 89.5679L172.26 85.893C175.731 84.5473 178.088 82.7875 179.331 80.6913V80.7172Z" fill="white"/>
<path d="M248.054 77.7928L250.359 86.8246L210.209 97.0987L197.749 48.4975L236.941 38.4564L239.247 47.4883L211.996 54.4756L214.69 65.0344L238.781 58.8751L241.034 67.6223L216.944 73.7815L219.819 85.039L248.054 77.8187V77.7928Z" fill="white"/>
<path d="M300.043 28.2083L307.425 77.8445L297.349 79.3455L266.472 53.1299L270.953 83.2533L258.856 85.039L251.473 35.4027L261.602 33.9017L292.401 60.1173L287.92 29.9939L300.017 28.1824L300.043 28.2083Z" fill="white"/>
<path d="M327.501 35.6615L310.404 36.7225L309.808 27.2766L356.383 24.3782L356.979 33.8241L339.883 34.8851L342.421 75.5155L330.065 76.2918L327.527 35.6356L327.501 35.6615Z" fill="white"/>
<path d="M365.035 24.5334L377.417 24.4299L377.883 74.6097L365.501 74.7132L365.035 24.5334Z" fill="white"/>
<path d="M400.834 72.4617C396.534 70.0291 393.218 66.7683 390.913 62.7053C388.582 58.6423 387.545 54.1393 387.804 49.1705C388.038 44.2017 389.54 39.8281 392.234 35.998C394.954 32.1937 398.58 29.2694 403.088 27.2767C407.595 25.284 412.62 24.4041 418.112 24.6888C422.749 24.9217 426.893 25.8792 430.572 27.6131C434.25 29.347 437.281 31.6761 439.69 34.6781L431.4 41.1479C427.981 37.059 423.603 34.8852 418.241 34.6005C414.926 34.4452 411.947 34.9628 409.279 36.205C406.611 37.4472 404.486 39.2329 402.932 41.5879C401.352 43.9429 400.497 46.6861 400.342 49.7916C400.186 52.8971 400.782 55.692 402.103 58.2023C403.424 60.7126 405.367 62.7053 407.906 64.2063C410.418 65.7073 413.346 66.5354 416.661 66.6907C421.997 66.9495 426.582 65.1897 430.39 61.4113L437.98 68.6834C435.286 71.4783 432.022 73.5228 428.188 74.8685C424.329 76.2142 420.106 76.7577 415.47 76.5248C410.03 76.266 405.16 74.8944 400.86 72.4617H400.834Z" fill="white"/>
<path d="M460.672 38.7152L443.679 36.5155L444.896 27.1213L491.16 33.0994L489.943 42.4936L472.95 40.2938L467.718 80.6913L455.439 79.1126L460.672 38.7152Z" fill="white"/>
<path d="M500.512 83.4863C496.652 80.3031 493.958 76.4989 492.378 72.0994C490.798 67.7 490.565 63.0935 491.653 58.2799C492.741 53.4923 494.968 49.4292 498.31 46.1685C501.651 42.8818 505.744 40.6562 510.588 39.4399C515.432 38.2494 520.561 38.2753 525.975 39.4916C531.389 40.708 536.026 42.9336 539.833 46.1167C543.641 49.2999 546.361 53.0782 547.967 57.5036C549.573 61.903 549.832 66.5095 548.718 71.323C547.631 76.1366 545.403 80.1737 542.035 83.4345C538.668 86.7212 534.575 88.9468 529.757 90.1631C524.939 91.3794 519.81 91.3535 514.396 90.1113C508.982 88.8691 504.345 86.6694 500.512 83.4863ZM525.431 80.3808C528.229 79.6303 530.586 78.2069 532.555 76.1625C534.523 74.118 535.844 71.5818 536.544 68.5281C537.243 65.5002 537.14 62.6276 536.285 59.9362C535.404 57.2448 533.876 54.9415 531.7 53.0265C529.524 51.1373 526.882 49.8433 523.799 49.1187C520.717 48.42 517.789 48.4458 514.992 49.1963C512.194 49.9468 509.837 51.3702 507.868 53.4146C505.9 55.4591 504.579 57.9953 503.879 61.049C503.18 64.0769 503.283 66.9495 504.138 69.6409C505.019 72.3323 506.547 74.6356 508.723 76.5248C510.899 78.4139 513.541 79.7338 516.624 80.4325C519.706 81.1313 522.633 81.1054 525.431 80.3549V80.3808Z" fill="white"/>
<path d="M614.359 68.8645L596.381 115.732L586.875 112.083L572.861 74.092L561.929 102.533L550.506 98.1597L568.483 51.2925L578.041 54.9673L591.978 92.9321L602.883 64.4909L614.307 68.8645H614.359Z" fill="white"/>
</g>
<defs>
<clipPath id="clip0_159_4993">
<rect width="756" height="443" fill="white"/>
</clipPath>
</defs>
</svg>
