<svg width="432" height="432" viewBox="0 0 432 432" fill="none" xmlns="http://www.w3.org/2000/svg">
<rect width="432" height="432" fill="#2A3959"/>
<path d="M71.9089 194.447C80.0877 198.227 90.4146 202.027 90.4146 202.027C90.4146 202.027 98.4554 202.933 103.166 205.059C107.876 207.186 112.271 208.84 115.444 209.608C118.282 210.277 133.398 214.924 145.932 210.277C151.765 208.111 153.618 202.894 153.618 199.98C153.618 196.751 152.534 194.998 149.164 193.305C145.124 191.277 146.326 189.859 146.326 189.859C146.326 189.859 157.599 190.608 157.441 199.566C157.284 208.505 149.105 212.502 148.652 212.797C148.198 213.093 135.309 220.082 112.093 214.609C88.8774 209.155 57.9359 190.214 57.9359 190.214C57.9359 190.214 41.2433 178.4 41.1053 177.632C41.1053 177.632 63.7104 190.667 71.9089 194.467V194.447Z" fill="white"/>
<path d="M166.369 186.217C164.556 187.437 153.381 187.182 153.381 187.182C154.13 187.792 158.683 191.277 158.525 192.025C158.387 192.793 155.352 192.635 154.741 192.025C154.13 191.415 146.996 186.414 146.247 185.665C145.498 184.917 146.957 179.148 146.957 179.148C150.603 181.57 157.481 180.369 157.481 180.369C158.387 178.105 160.93 177.337 164.576 178.754C167.295 179.818 167.808 183.815 167.808 183.815C167.808 183.815 167.867 185.252 166.389 186.236L166.369 186.217Z" fill="white"/>
<path d="M163.373 216.735C160.654 215.829 159.274 216.578 159.274 216.578C159.274 216.578 168.221 207.777 169.739 198.995C171.256 190.214 168.832 180.113 167.768 178.735C167.768 178.735 170.232 179.739 171.848 178.321C171.848 178.321 177.031 167.197 177.346 165.228C177.346 165.228 177.484 206.576 166.704 219.472C166.704 219.472 166.093 217.661 163.354 216.755L163.373 216.735Z" fill="white"/>
<path d="M174.154 241.13C175.06 239.161 167.335 233.392 165.344 230.675C163.373 227.938 163.827 227.348 164.28 227.033C164.28 227.033 178.548 237.803 190.669 241.741C202.809 245.678 211.756 250.384 211.914 251.447C212.052 252.511 207.815 254.322 204.188 253.731C200.542 253.121 199.025 248.73 192.048 247.51C185.072 246.289 177.189 246.446 170.803 246.289C164.438 246.131 155.786 244.773 154.426 240.973C154.426 240.973 173.227 243.099 174.154 241.13Z" fill="white"/>
<path d="M124.844 237.803C125.613 237.96 127.268 238.708 129.081 239.023C129.081 239.023 136.216 239.181 141.379 238.256C146.543 237.35 152.14 239.476 152.14 239.476C152.14 239.476 156.535 240.225 146.523 241.288C136.511 242.351 128.175 243.099 126.657 241.583C125.14 240.067 124.076 237.645 124.844 237.803Z" fill="white"/>
<path d="M98.613 233.294C94.9671 224.04 97.2532 216.873 97.2532 216.873C98.7707 216.873 102.259 219.452 107.56 227.032C112.862 234.613 121.356 236.877 121.356 236.877C121.198 237.625 120.449 239.004 118.932 239.909C117.414 240.815 109.374 239.004 106.95 239.752C104.525 240.5 103.461 243.394 101.175 247.627C98.9087 251.88 100.722 258.24 102.082 259.599C103.441 260.957 104.663 265.052 103.442 265.21C102.22 265.368 97.9824 262.178 97.9824 262.178C97.9824 262.178 96.7999 255.818 94.1394 249.045C91.9124 243.394 92.6613 237.468 92.6613 237.468C96.0116 236.857 98.5736 233.274 98.5736 233.274L98.613 233.294Z" fill="white"/>
<path d="M65.2278 230.065C64.6168 228.391 65.6219 227.741 69.2679 227.426C72.9139 227.131 79.989 224.749 81.8219 222.169C83.635 219.59 87.6751 212.817 93.1539 212.659C93.1539 212.659 87.0839 218.665 89.508 223.075C91.932 227.466 95.2824 230.34 94.6714 231.108C94.0605 231.856 75.8109 232.427 72.3226 232.27C68.8343 232.132 68.7949 236.877 68.4796 239.142C68.1643 241.425 66.2526 249.242 68.2825 253.082C68.992 254.42 67.7307 256.507 66.0555 255.917C64.3803 255.306 62.7249 252.491 62.2125 251.467C61.7986 250.66 63.0205 248.415 63.4146 244.182C63.8088 239.949 65.8387 231.699 65.2278 230.045V230.065Z" fill="white"/>
<path d="M135.191 219.236C144.454 218.94 153.165 214.254 153.165 214.254C155.214 219.374 155.49 223.626 154.15 227.23C151.489 234.397 141.497 234.593 141.497 234.593C140 234.239 136.176 225.517 136.176 225.517C133.2 227.997 137.911 233.097 138.6 234.633C139.31 236.169 135.822 236.109 134.068 234.022C131.88 231.423 128.707 226.56 128.707 226.56C127.209 227.623 130.362 231.679 131.052 233.826C131.742 235.972 127.012 233.491 127.012 233.491C120.075 222.8 110.576 219.61 110.576 219.61C111.226 218.409 125.908 219.511 135.171 219.216L135.191 219.236Z" fill="white"/>
<path d="M206.632 236.129C205.726 234.613 203.105 234.239 198.276 233.412C193.073 232.506 190.078 232.802 186.136 232.349C182.194 231.896 171.867 228.864 171.867 228.864C165.502 217.661 173.838 218.409 173.838 218.409C174.607 219.472 182.786 223.567 187.496 225.536C192.206 227.505 203.42 230.537 207.381 231.758C211.323 232.979 212.998 234.79 212.683 236.759C212.387 238.728 207.519 237.665 206.613 236.149L206.632 236.129Z" fill="white"/>
<path d="M359.999 195.451C351.781 199.172 341.435 202.874 341.435 202.874C341.435 202.874 333.374 203.721 328.664 205.788C323.934 207.875 319.539 209.489 316.346 210.218C313.508 210.868 298.353 215.357 285.839 210.612C280.025 208.387 278.212 203.15 278.251 200.236C278.29 197.006 279.374 195.274 282.764 193.6C286.824 191.612 285.641 190.194 285.641 190.194C285.641 190.194 274.368 190.844 274.428 199.783C274.487 208.722 282.646 212.797 283.119 213.093C283.572 213.408 296.402 220.476 319.657 215.239C342.913 209.982 374.032 191.316 374.032 191.316C374.032 191.316 390.823 179.641 391 178.892C391 178.892 368.277 191.73 360.039 195.451H359.999Z" fill="white"/>
<path d="M265.598 186.374C267.412 187.595 278.586 187.457 278.586 187.457C277.817 188.048 273.245 191.513 273.383 192.261C273.521 193.029 276.556 192.891 277.167 192.301C277.778 191.71 284.952 186.768 285.72 186.02C286.489 185.272 285.09 179.483 285.09 179.483C281.424 181.885 274.565 180.605 274.565 180.605C273.679 178.321 271.156 177.553 267.49 178.932C264.751 179.975 264.199 183.952 264.199 183.952C264.199 183.952 264.12 185.39 265.598 186.394V186.374Z" fill="white"/>
<path d="M268.318 216.912C271.058 216.026 272.417 216.794 272.417 216.794C272.417 216.794 263.549 207.914 262.11 199.113C260.671 190.312 263.194 180.231 264.258 178.873C264.258 178.873 261.775 179.857 260.179 178.42C260.179 178.42 255.094 167.236 254.798 165.267C254.798 165.267 254.286 206.615 264.948 219.59C264.948 219.59 265.559 217.779 268.318 216.893V216.912Z" fill="white"/>
<path d="M257.321 241.209C256.434 239.24 264.219 233.55 266.209 230.833C268.2 228.135 267.747 227.505 267.313 227.21C267.313 227.21 252.966 237.842 240.786 241.682C228.607 245.501 219.62 250.128 219.462 251.192C219.305 252.255 223.522 254.106 227.188 253.535C230.834 252.964 232.391 248.573 239.387 247.431C246.364 246.269 254.266 246.505 260.632 246.407C266.998 246.309 275.669 245.029 277.068 241.248C277.068 241.248 258.228 243.198 257.341 241.229L257.321 241.209Z" fill="white"/>
<path d="M306.67 238.315C305.921 238.453 304.226 239.201 302.413 239.496C302.413 239.496 295.279 239.595 290.135 238.63C284.991 237.685 279.355 239.752 279.355 239.752C279.355 239.752 274.96 240.461 284.952 241.623C294.963 242.764 303.28 243.611 304.817 242.095C306.355 240.599 307.438 238.177 306.67 238.315Z" fill="white"/>
<path d="M332.94 234.062C336.665 224.847 334.458 217.661 334.458 217.661C332.94 217.661 329.432 220.201 324.052 227.722C318.672 235.243 310.158 237.448 310.158 237.448C310.296 238.197 311.045 239.575 312.562 240.5C314.08 241.426 322.121 239.673 324.545 240.461C326.969 241.229 327.994 244.123 330.24 248.396C332.467 252.648 330.595 259.008 329.216 260.367C327.836 261.706 326.594 265.801 327.797 265.958C329.019 266.116 333.295 262.985 333.295 262.985C333.295 262.985 334.537 256.645 337.256 249.892C339.523 244.261 338.833 238.334 338.833 238.334C335.502 237.704 332.96 234.082 332.96 234.082L332.94 234.062Z" fill="white"/>
<path d="M366.345 231.128C366.976 229.474 365.971 228.805 362.325 228.47C358.679 228.135 351.624 225.694 349.83 223.095C348.037 220.496 344.056 213.703 338.577 213.506C338.577 213.506 344.588 219.57 342.124 223.941C339.661 228.312 336.291 231.167 336.902 231.935C337.513 232.703 355.743 233.412 359.231 233.294C362.719 233.176 362.739 237.921 363.015 240.205C363.291 242.489 365.143 250.325 363.094 254.145C362.364 255.484 363.626 257.571 365.301 256.98C366.976 256.389 368.651 253.593 369.183 252.57C369.597 251.762 368.395 249.518 368.021 245.285C367.666 241.032 365.695 232.782 366.326 231.128H366.345Z" fill="white"/>
<path d="M296.481 219.669C287.218 219.295 278.547 214.55 278.547 214.55C276.438 219.649 276.142 223.902 277.443 227.505C280.044 234.692 290.017 234.987 290.017 234.987C291.534 234.652 295.417 225.969 295.417 225.969C298.353 228.47 293.623 233.55 292.914 235.066C292.184 236.602 295.673 236.562 297.466 234.495C299.673 231.916 302.906 227.092 302.906 227.092C304.403 228.175 301.211 232.191 300.501 234.318C299.792 236.464 304.541 234.022 304.541 234.022C311.577 223.39 321.116 220.279 321.116 220.279C320.485 219.078 305.783 220.043 296.52 219.649L296.481 219.669Z" fill="white"/>
<path d="M224.921 235.932C225.848 234.416 228.449 234.081 233.297 233.274C238.5 232.408 241.496 232.742 245.437 232.329C249.379 231.915 259.725 228.962 259.725 228.962C266.209 217.798 257.853 218.487 257.853 218.487C257.085 219.531 248.847 223.567 244.136 225.497C239.407 227.426 228.153 230.36 224.212 231.522C220.25 232.703 218.575 234.495 218.871 236.483C219.147 238.452 224.015 237.428 224.941 235.932H224.921Z" fill="white"/>
</svg>
