<svg width="2892" height="100" viewBox="0 0 2892 100" fill="none" xmlns="http://www.w3.org/2000/svg">
<path fill-rule="evenodd" clip-rule="evenodd" d="M1446 100H0V37.574L11.06 32.8C17.4855 28.0011 23.6666 22.8834 29.58 17.466L37.04 10.34L39.18 14.534C43.0365 21.6946 47.6857 28.399 53.04 34.521L56.89 38.695L61.68 34.041C66.08 29.767 66.55 29.541 67.58 31.178C79.59 50.355 88.72 61.4 95.31 64.748C105.8 70.063 125.45 73.506 145.35 73.506C178.41 73.506 209.5 63.957 238.01 45.05C245.86 39.85 258.09 29.966 262.69 25.122C264.25 23.471 265.96 22.122 266.47 22.122C266.98 22.122 269.23 23.622 271.48 25.465C276.3 29.419 293.96 40.549 295.4 40.549C296.699 40.9019 297.915 41.5074 298.98 42.331C302.52 44.783 316.41 50.538 326.04 53.531C341.75 58.425 364.64 61.879 381.32 61.879C390.66 61.879 415.2 59.287 423.81 57.385C457.52 49.9767 489.543 36.3155 518.22 17.109L525.3 12.395L530.58 17.495C536.072 22.8177 546.468 26.3098 554.546 29.0236C556.676 29.7391 558.645 30.4004 560.32 31.027C563.917 32.773 566.278 33.9284 567.869 34.707C570.52 36.0047 571.033 36.2555 571.566 36.4495C571.694 36.496 571.823 36.5392 571.982 36.5928C572.935 36.9121 574.985 37.5991 584.42 41.536C589.951 43.4977 594.13 45.0255 597.44 46.2356C603.574 48.4784 606.722 49.6294 609.957 50.4271C613.368 51.2682 616.875 51.7166 624.08 52.6379C626.108 52.8971 628.427 53.1937 631.12 53.547C643.59 55.188 662.78 52.866 675.07 50.247C703.56 44.162 738.77 27.266 760.05 9.49L764.45 5.807L766.84 7.689C771.66 11.472 786.76 20.511 795.94 25.095C818.86 36.545 846.02 45.203 874.99 50.308C889.65 52.89 912.04 53.101 926.86 50.788C959.48 45.713 999.49 30.219 1034.88 8.97C1041.71 4.876 1047.43 1.683 1047.6 1.884C1047.77 2.085 1049.27 4.867 1050.96 8.07C1054.47 14.723 1064.11 26 1066.3 26C1067.77 25.7162 1069.15 25.1005 1070.35 24.2L1070.42 24.1526C1073.72 21.8387 1075.34 20.7083 1076.59 21.023C1077.79 21.3236 1078.65 22.9426 1080.34 26.1079L1080.37 26.162C1082.61 30.1382 1085.26 33.8715 1088.27 37.302C1092.37 41.786 1093.96 42.757 1100.54 44.839C1116.52 49.884 1123.51 50.714 1149.09 50.624C1170.88 50.554 1173.93 50.334 1185.7 47.942C1206.52 43.9367 1226.67 36.9802 1245.53 27.283C1254.99 22.549 1276.13 8.876 1282.51 3.351L1286.39 0L1286.99 4.514C1287.4 7.35388 1287.96 10.1704 1288.67 12.952C1289.91 17.452 1296.57 28.876 1298.78 30.268C1300.25 31.199 1302.88 29.517 1313.8 20.659L1316.95 18.107V21.88C1316.95 31.549 1322.41 42.669 1332.39 53.338C1338.1 59.4312 1339.76 60.1667 1346.34 63.0885L1346.39 63.1113C1346.79 63.288 1347.2 63.4727 1347.64 63.667C1365.93 71.8153 1392.8 60.3003 1427.71 45.3392C1433.58 42.8226 1439.68 40.2085 1446 37.574L1457.06 32.8C1463.49 28.0011 1469.67 22.8834 1475.58 17.466L1483.04 10.34L1485.18 14.534C1489.04 21.6946 1493.69 28.399 1499.04 34.521L1502.89 38.695L1507.68 34.041C1512.08 29.767 1512.55 29.541 1513.58 31.178C1525.59 50.355 1534.72 61.4 1541.31 64.748C1551.8 70.063 1571.45 73.506 1591.35 73.506C1624.41 73.506 1655.5 63.957 1684.01 45.05C1691.86 39.85 1704.09 29.966 1708.69 25.122C1710.25 23.471 1711.96 22.122 1712.47 22.122C1712.98 22.122 1715.23 23.622 1717.48 25.465C1722.3 29.419 1739.96 40.549 1741.4 40.549C1742.7 40.9019 1743.92 41.5074 1744.98 42.331C1748.52 44.783 1762.41 50.538 1772.04 53.531C1787.75 58.425 1810.64 61.879 1827.32 61.879C1836.66 61.879 1861.2 59.287 1869.81 57.385C1903.52 49.9767 1935.54 36.3155 1964.22 17.109L1971.3 12.395L1976.58 17.495C1982.07 22.8177 1992.47 26.3098 2000.55 29.0236L2000.55 29.0243C2002.68 29.7395 2004.65 30.4007 2006.32 31.027C2009.92 32.7734 2012.28 33.929 2013.87 34.7076C2016.52 36.0047 2017.03 36.2555 2017.57 36.4495C2017.69 36.496 2017.82 36.5392 2017.98 36.5928C2018.94 36.9121 2020.99 37.5991 2030.42 41.536C2035.95 43.4978 2040.13 45.0257 2043.44 46.2357C2049.57 48.4784 2052.72 49.6294 2055.96 50.4271C2059.37 51.2681 2062.88 51.7166 2070.08 52.6378C2072.11 52.897 2074.43 53.1937 2077.12 53.547C2089.59 55.188 2108.78 52.866 2121.07 50.247C2149.56 44.162 2184.77 27.266 2206.05 9.49L2210.45 5.807L2212.84 7.689C2217.66 11.472 2232.76 20.511 2241.94 25.095C2264.86 36.545 2292.02 45.203 2320.99 50.308C2335.65 52.89 2358.04 53.101 2372.86 50.788C2405.48 45.713 2445.49 30.219 2480.88 8.97C2487.71 4.876 2493.43 1.683 2493.6 1.884C2493.77 2.085 2495.27 4.867 2496.96 8.07C2500.47 14.723 2510.11 26 2512.3 26C2513.77 25.7162 2515.15 25.1005 2516.35 24.2L2516.42 24.154C2519.72 21.8391 2521.34 20.7082 2522.59 21.023C2523.79 21.3236 2524.65 22.942 2526.34 26.1062L2526.37 26.162C2528.61 30.1382 2531.26 33.8715 2534.27 37.302C2538.37 41.786 2539.96 42.757 2546.54 44.839C2562.52 49.884 2569.51 50.714 2595.09 50.624C2616.88 50.554 2619.93 50.334 2631.7 47.942C2652.52 43.9367 2672.67 36.9802 2691.53 27.283C2700.99 22.549 2722.13 8.876 2728.51 3.351L2732.39 0L2732.99 4.514C2733.4 7.35388 2733.96 10.1704 2734.67 12.952C2735.91 17.452 2742.57 28.876 2744.78 30.268C2746.25 31.199 2748.88 29.517 2759.8 20.659L2762.95 18.107V21.88C2762.95 31.549 2768.41 42.669 2778.39 53.338C2784.1 59.4313 2785.76 60.1668 2792.34 63.0887C2792.75 63.2722 2793.19 63.4644 2793.64 63.667C2811.93 71.8154 2838.8 60.3003 2873.71 45.3391C2879.58 42.8225 2885.68 40.2084 2892 37.574V100H1446ZM189.469 19.4798C191.822 20.9413 194.225 22.3366 194.809 22.5806C195.393 22.8246 197.248 23.907 198.932 24.986C201.99 26.946 201.993 26.9489 202.895 28.4095C203.817 29.9038 204.034 31.1273 203.52 31.9432C203.315 32.2695 203.139 32.2696 202.571 31.9432C201.476 31.3131 199.913 31.2027 197.842 31.6093C196.792 31.8154 195.643 31.9815 195.29 31.9781C194.545 31.9709 194.222 32.2641 194.921 32.3126C195.179 32.3305 195.777 32.527 196.249 32.7494C197.322 33.2541 198.53 33.416 200.57 33.3283C201.444 33.2906 202.18 33.3498 202.205 33.4597C202.292 33.8425 201.506 34.762 200.663 35.263C198.694 36.4337 193.603 36.8504 188.327 36.2726C183.831 35.7804 180.319 35.8329 180.161 36.3948C179.955 37.1284 177.892 41.5105 177.735 41.546C177.469 41.6067 176.923 40.63 176.574 39.4688C176.284 38.503 176.182 37.9668 175.891 37.8274C175.518 37.6494 174.837 38.1177 173.062 39.1641C170.228 40.8357 167.621 41.9156 166.367 41.9382L165.711 41.9503L166.423 41.0624C167.317 39.9459 168.706 36.8375 168.569 36.2557C168.481 35.8803 167.797 35.6651 163.783 34.7502C161.207 34.1631 158.821 33.6879 158.482 33.6944C157.427 33.7146 155.622 34.8497 154.157 36.414C151.386 39.3718 149.183 41.0068 146.503 42.0947C145.321 42.5744 144.519 42.6519 144.438 42.2948C144.418 42.2083 144.996 41.4398 145.723 40.5874C147.06 39.0177 147.402 38.4155 147.98 36.6064C148.156 36.0544 148.569 35.2959 148.897 34.9208C149.487 34.2466 149.487 34.2401 148.886 34.3456C148.077 34.488 144.528 36.6789 143.6 37.6098C143.193 38.0175 142.462 38.9776 141.974 39.7432C141.206 40.9512 141.067 41.3615 140.924 42.8417C140.661 45.5771 141.54 47.9785 143.689 50.3892C145.051 51.9168 148.087 53.5933 150.062 53.9075C150.867 54.0355 152.349 54.2702 153.356 54.4286C155.673 54.7936 158.346 56.1414 159.022 57.2855C159.463 58.0329 159.245 58.3853 158.595 57.9777C158.002 57.6065 157.271 57.6196 155 58.0418C153.48 58.3248 152.597 58.3429 151.756 58.1089C151.12 57.932 150.501 57.7253 150.38 57.6495C150.061 57.4498 148.959 57.7957 147.925 58.4197C146.775 59.1135 145.42 59.2984 144.212 58.9264C143.021 58.5601 142.637 58.7452 141.117 60.4185C139.643 62.0411 138.864 62.5222 137.099 62.8976C135.485 63.2406 135.113 63.7009 134.815 65.724C134.688 66.5878 134.387 67.4634 134.016 68.0505C133.315 69.1605 133.051 70.4646 133.291 71.6332C133.578 73.0327 133.185 72.6519 132.39 70.7613C131.217 67.9686 130.776 64.9713 131.107 62.0368C131.519 58.3747 131.912 57.1979 133.393 55.1902C135.962 51.7073 135.824 49.6435 132.597 43.2971C131.162 40.4758 130.654 36.3493 131.271 32.5195C131.609 30.4163 132.901 27.289 134.421 24.8931C136.462 21.6777 138.168 19.9872 141.298 18.0799C145.662 15.4202 149.598 14.1661 157.031 13.0675C157.92 12.936 157.943 12.9152 158.171 11.9997C158.457 10.8491 158.051 9.72485 157.141 9.15509C154.958 7.78731 159.727 7.56669 163.562 8.85813C165.153 9.39421 165.821 9.74301 167.341 10.834C169.636 12.4803 171.075 13.0635 173.847 13.4706C176.502 13.8605 180.007 14.8174 182.947 15.955C184.748 16.652 186.031 17.3454 189.469 19.4798Z" fill="#2A3959"/>
</svg>
