<svg width="74" height="66" viewBox="0 0 74 66" fill="none" xmlns="http://www.w3.org/2000/svg">
<path fill-rule="evenodd" clip-rule="evenodd" d="M64.2391 15.579C63.6553 15.335 61.2518 13.9397 58.8985 12.4782C55.4609 10.3438 54.1781 9.65041 52.3767 8.95339C49.4372 7.81582 45.9318 6.8589 43.2773 6.46897C40.5045 6.06195 39.0655 5.4787 36.7712 3.83238C35.2506 2.74141 34.5832 2.39261 32.9917 1.85653C29.1566 0.565092 24.3876 0.785717 26.5709 2.15349C27.4804 2.72325 27.8872 3.84746 27.6005 4.99813C27.3724 5.9136 27.3501 5.93444 26.4606 6.0659C19.0276 7.16448 15.0914 8.41863 10.7276 11.0783C7.59811 12.9856 5.89202 14.6761 3.85126 17.8915C2.33078 20.2874 1.03858 23.4147 0.700343 25.5179C0.0842994 29.3477 0.592303 33.4742 2.02681 36.2955C5.25398 42.6419 5.39224 44.7057 2.82314 48.1886C1.34211 50.1963 0.949233 51.3731 0.536486 55.0352C0.205841 57.9697 0.646765 60.967 1.82025 63.7597C2.61482 65.6503 3.00818 66.0311 2.7208 64.6316C2.48107 63.463 2.74504 62.1589 3.4462 61.0489C3.81702 60.4618 4.11761 59.5862 4.24488 58.7224C4.543 56.6993 4.91482 56.239 6.52837 55.896C8.29361 55.5206 9.07331 55.0395 10.5473 53.4169C12.0669 51.7436 12.4512 51.5585 13.6417 51.9248C14.8499 52.2968 16.2053 52.1119 17.3547 51.4181C18.3884 50.7941 19.4912 50.4482 19.81 50.6479C19.9309 50.7237 20.5502 50.9304 21.1859 51.1073C22.0272 51.3413 22.9098 51.3232 24.4302 51.0402C26.7005 50.618 27.432 50.6049 28.0247 50.9761C28.6753 51.3837 28.8926 51.0313 28.4515 50.2839C27.7762 49.1398 25.1031 47.792 22.7857 47.427C21.7788 47.2686 20.2967 47.0339 19.4919 46.9059C17.5172 46.5917 14.4809 44.9152 13.1191 43.3876C10.9703 40.9769 10.0906 38.5755 10.3541 35.8401C10.4966 34.3599 10.6356 33.9496 11.4042 32.7416C11.8916 31.976 12.6232 31.0159 13.0297 30.6082C13.9583 29.6773 17.5066 27.4864 18.3163 27.344C18.9165 27.2385 18.9167 27.245 18.3269 27.9192C17.9989 28.2943 17.5861 29.0528 17.4097 29.6048C16.8316 31.4139 16.4901 32.0161 15.1526 33.5858C14.426 34.4382 13.848 35.2067 13.8677 35.2932C13.9491 35.6503 14.7508 35.5728 15.9325 35.0931C18.6129 34.0052 20.8158 32.3702 23.5864 29.4124C25.0518 27.8481 26.8568 26.713 27.9114 26.6928C28.2509 26.6863 30.6366 27.1615 33.2127 27.7486C37.2269 28.6635 37.9113 28.8787 37.9992 29.2541C38.1354 29.8359 36.7472 32.9443 35.8525 34.0608L35.1408 34.9487L35.7971 34.9366C37.0513 34.914 39.6574 33.8341 42.4923 32.1625C45.6577 30.2962 45.344 30.2689 46.0041 32.4672C46.3529 33.6284 46.8989 34.6051 47.1653 34.5444C47.3214 34.5089 49.3848 30.1268 49.5908 29.3932C49.7488 28.8313 53.2608 28.7788 57.7569 29.271C63.0331 29.8488 68.1235 29.4321 70.093 28.2614C70.936 27.7604 71.7221 26.8409 71.6349 26.4581C71.6099 26.3482 70.8741 26.289 69.9998 26.3267C67.9603 26.4144 66.7516 26.2525 65.6789 25.7478C65.2064 25.5254 64.609 25.3289 64.3511 25.311C63.652 25.2625 63.9749 24.9693 64.7194 24.9765C65.0731 24.9799 66.2214 24.8138 67.2716 24.6077C69.3426 24.2011 70.9061 24.3115 72.0011 24.9416C72.5684 25.268 72.7447 25.2679 72.9501 24.9416C73.4636 24.1257 73.247 22.9022 72.3246 21.4079C71.4232 19.9473 71.4199 19.9444 68.3617 17.9844C66.6781 16.9054 64.823 15.823 64.2391 15.579Z" fill="#2A3959"/>
</svg>
