<svg xmlns="http://www.w3.org/2000/svg" width="1446" height="100" viewBox="0 0 1446 100">
  <path id="water" d="M1446,37.574V100H0V37.574L11.06,32.8A240.134,240.134,0,0,0,29.58,17.466l7.46-7.126,2.14,4.194A108.529,108.529,0,0,0,53.04,34.521l3.85,4.174,4.79-4.654c4.4-4.274,4.87-4.5,5.9-2.863C79.59,50.355,88.72,61.4,95.31,64.748c10.49,5.315,30.14,8.758,50.04,8.758,33.06,0,64.15-9.549,92.66-28.456,7.85-5.2,20.08-15.084,24.68-19.928,1.56-1.651,3.27-3,3.78-3s2.76,1.5,5.01,3.343c4.82,3.954,22.48,15.084,23.92,15.084a10.237,10.237,0,0,1,3.58,1.782c3.54,2.452,17.43,8.207,27.06,11.2,15.71,4.894,38.6,8.348,55.28,8.348,9.34,0,33.88-2.592,42.49-4.494a276.186,276.186,0,0,0,94.41-40.276l7.08-4.714,5.28,5.1c6.94,6.726,21.71,10.529,29.74,13.532,19.59,9.509,2.51,1.5,24.1,10.509,29.63,10.509,20.46,8.568,46.7,12.011,12.47,1.641,31.66-.681,43.95-3.3,28.49-6.085,63.7-22.981,84.98-40.757l4.4-3.683,2.39,1.882c4.82,3.783,19.92,12.822,29.1,17.406,22.92,11.45,50.08,20.108,79.05,25.213,14.66,2.582,37.05,2.793,51.87.48,32.62-5.075,72.63-20.569,108.02-41.818,6.83-4.094,12.55-7.287,12.72-7.086s1.67,2.983,3.36,6.186C1054.47,14.723,1064.11,26,1066.3,26a9.829,9.829,0,0,0,4.05-1.8c6.55-4.584,6.52-4.594,10.02,1.962a66.079,66.079,0,0,0,7.9,11.14c4.1,4.484,5.69,5.455,12.27,7.537,15.98,5.045,22.97,5.875,48.55,5.785,21.79-.07,24.84-.29,36.61-2.682a222.907,222.907,0,0,0,59.83-20.659c9.46-4.734,30.6-18.407,36.98-23.932L1286.39,0l.6,4.514a82.792,82.792,0,0,0,1.68,8.438c1.24,4.5,7.9,15.924,10.11,17.316,1.47.931,4.1-.751,15.02-9.609l3.15-2.552V21.88c0,9.669,5.46,20.789,15.44,31.458,6.07,6.476,7.56,6.9,15.25,10.329C1369.01,73.186,1402.08,55.87,1446,37.574Z" fill="#2a3959"/>
</svg>
