<svg width="2880" height="180" viewBox="0 0 2880 180" fill="none" xmlns="http://www.w3.org/2000/svg">
<path fill-rule="evenodd" clip-rule="evenodd" d="M357.962 4.6841C359.059 3.9443 360.776 2.58657 361.778 1.66659C362.78 0.746876 363.797 -0.00311822 364.037 1.9848e-05C365.019 0.0130951 366.174 1.48145 366.174 2.71627C366.174 3.18045 366.397 3.4953 366.913 3.7623C367.534 4.08369 369.051 5.95136 369.051 6.39566C369.051 6.47045 368.745 6.5319 368.371 6.5319C366.361 6.5319 363.352 13.1684 364.383 15.3284C365.065 16.7596 366.729 16.4343 369.49 14.3289C371.762 12.5965 372.274 11.3334 371.09 10.3881C370.5 9.91761 370.508 9.91631 371.535 10.3161C372.916 10.8533 374.283 12.3227 374.275 13.2617C374.262 14.8635 372.314 18.182 368.791 22.6022C364.878 27.5127 362.95 30.4215 361.015 34.3362C360.075 36.2384 360.026 36.7878 360.564 39.3508L360.729 40.1353L360.184 39.3508L359.64 38.5663L359.644 39.8738C359.647 40.593 359.757 41.6487 359.89 42.2201C360.169 43.4248 360.079 43.6186 359.474 43.1165C359.088 42.7959 359.057 42.8142 359.199 43.2755C359.628 44.6617 360.169 47.4047 360.039 47.5346C359.959 47.6149 359.714 47.4541 359.496 47.1769C359.131 46.7133 359.112 46.7778 359.252 47.9805C359.335 48.6996 359.459 49.5822 359.527 49.9418L359.65 50.5956L359.096 49.9418C358.64 49.4041 358.574 49.3809 358.721 49.811C358.82 50.0987 358.958 51.0401 359.028 51.9031C359.126 53.1194 359.087 53.384 358.854 53.0799C358.621 52.776 358.591 52.9821 358.721 53.9951C358.814 54.7143 358.948 55.5969 359.02 55.9564L359.15 56.6102L358.57 55.9564L357.991 55.3027L358.156 57.6562C358.297 59.6831 358.271 59.9449 357.961 59.5414C357.645 59.1295 357.599 59.2851 357.576 60.8335C357.561 61.8019 357.431 62.7127 357.285 62.8578C357.108 63.0354 357.022 62.976 357.022 62.6771C357.022 62.4326 356.904 62.2326 356.76 62.2326C356.488 62.2326 356.419 62.8934 356.494 64.7822C356.54 65.9334 356.086 66.3426 355.915 65.3052C355.837 64.8379 355.744 64.9472 355.46 65.8377C355.228 66.5667 355.031 66.8434 354.899 66.6295C354.66 66.243 354.538 66.5273 354.284 68.051C354.113 69.0801 353.734 69.3523 353.556 68.5741C353.491 68.2919 353.329 68.5427 353.134 69.2278C352.96 69.839 352.671 70.3392 352.491 70.3392C351.889 70.3392 351.183 71.9914 350.822 74.2445C350.149 78.4456 348.035 83.5348 345.582 86.8543C344.198 88.7285 343.234 90.6655 342.772 92.5057C342.238 94.6331 340.76 106.674 340.727 109.173C340.686 112.258 341.773 114.105 344.088 114.855L344.842 115.052C344.869 115.058 344.895 115.063 344.922 115.068C345.697 115.218 346.233 115.341 346.606 115.513L359.594 118.906L370.147 115.259L382.322 109.787L422.909 101.885H453.754L476.483 109.787L504.081 115.259L526.809 113.435L586.065 107.356L604.735 111.611L626.652 115.259L669.673 107.356L692.401 103.708L708.636 107.356H722.435L758.151 101.885L789.808 90.3344L821.466 95.8056L865.299 109.787H897.768L929.425 115.259L949.718 107.356L1001.67 95.8056L1009.79 89.1186L1040.63 80L1062.55 89.1186L1075.54 99.4531H1095.83L1116.93 95.8056H1135.6L1169.7 105.532L1212.72 115.259L1241.13 113.435L1267.1 105.532L1289.83 95.8056L1321.49 99.3815L1346.65 107.356L1366.94 113.435H1379.93L1390.48 110.395L1398.6 109.787L1409.97 113.435L1425.39 120.73H1440V120.769L1488.7 125.593L1512.24 118.906L1541.47 115.259L1567.44 99.4531L1598.5 88L1617.77 90.3344L1625.07 95.8056H1639.68L1651.86 99.4531L1660.79 103.708H1665.66L1690.82 111.611L1716.8 109.787L1733.84 105.532H1749.27L1764.69 109.787L1799.59 118.906L1810.15 115.259L1822.32 109.787L1862.91 101.885H1893.75L1916.48 109.787L1944.08 115.259L1966.81 113.435L2026.07 107.356L2044.74 111.611L2066.65 115.259L2109.67 107.356L2132.4 103.708L2148.64 107.356H2162.44L2198.15 101.885L2229.81 90.3344L2261.47 95.8056L2305.3 109.787H2337.77L2369.43 115.259L2389.72 107.356L2441.67 95.8056L2449.79 89.1186L2480.63 80L2502.55 89.1186L2515.54 99.4531H2535.83L2556.93 95.8056H2575.6L2609.7 105.532L2652.72 115.259L2681.13 113.435L2707.1 105.532L2729.83 95.8056L2761.49 99.3815L2786.65 107.356L2806.94 113.435H2819.93L2830.48 110.395L2838.6 109.787L2849.97 113.435L2865.39 120.73H2880V180H0V120.73L48.7035 125.593L72.2435 118.906L101.466 115.259L127.441 99.4531L158.5 88L177.768 90.3344L185.073 95.8056H199.684L211.86 99.4531L220.789 103.708H225.66L250.823 111.611L262.149 110.816C262.297 110.586 262.503 110.297 262.767 109.952C263.824 108.567 263.822 108.245 262.761 109.079L262.039 109.647L262.45 108.853C262.676 108.416 263.182 107.677 263.575 107.21L264.289 106.361L263.454 106.793C262.43 107.322 262.418 107.209 263.358 105.82C264.492 104.145 264.53 104.059 264.046 104.244C263.799 104.339 264.063 103.818 264.667 103.021C265.478 101.949 265.785 101.243 266.014 99.9296C266.399 97.7199 266.516 97.5277 268.444 95.9469C271.331 93.5795 273.266 91.5227 274.128 89.9064C274.906 88.4456 274.998 88.0002 275.354 83.9749C275.566 81.5811 275.94 78.4166 276.186 76.9422C276.431 75.4679 276.6 74.2618 276.562 74.2618C276.524 74.2618 275.84 74.5709 275.042 74.9485C272.905 75.9605 269.967 79.6718 269.946 81.3878C269.943 81.6394 269.823 81.8455 269.679 81.8455C269.535 81.8455 269.417 81.6101 269.417 81.3224C269.417 81.0348 269.31 80.7994 269.179 80.7994C268.933 80.7994 266.738 83.7623 266.467 84.4605C266.352 84.7568 266.27 84.7076 266.134 84.2589C265.899 83.4835 265.592 83.7429 264.178 85.9129C263.574 86.84 263.021 87.5986 262.95 87.5986C262.879 87.5986 262.872 87.2455 262.935 86.8141C262.999 86.3826 262.977 86.0295 262.887 86.0295C262.798 86.0295 262.267 86.4982 261.708 87.0709C260.695 88.108 260.012 88.3384 260.918 87.3371C261.18 87.0476 261.313 86.7299 261.214 86.6307C261.115 86.5316 260.217 87.2612 259.219 88.2523C257.453 90.0044 256.564 90.4762 257.665 89.0769C258.42 88.1171 257.948 88.2087 256.716 89.261C255.549 90.2576 253.705 91.2596 253.038 91.2596C252.659 91.2596 252.685 91.1587 253.204 90.6059C253.542 90.2463 253.754 89.9521 253.675 89.9521C253.596 89.9521 252.631 90.2463 251.529 90.6059C249.242 91.3527 248.834 91.41 249.893 90.8365C250.301 90.6153 250.576 90.375 250.504 90.3028C250.431 90.2304 250.122 90.3054 249.816 90.4691C249.275 90.7583 246.433 91.4016 244.574 91.6556L243.659 91.7806L244.496 91.5159C245.568 91.177 245.803 90.8096 244.887 90.904C241.52 91.2513 239.73 91.1174 241.567 90.6561C241.855 90.5837 241.619 90.5196 241.044 90.5136C240.469 90.5076 239.468 90.3933 238.821 90.2599C237.842 90.0583 237.776 90.0115 238.429 89.9809C240.055 89.9048 239.896 89.5073 238.174 89.3467C236.175 89.16 235.499 88.8776 236.47 88.6349C237.016 88.4987 236.896 88.4226 235.728 88.1647C234.962 87.9955 234.079 87.7178 233.767 87.5476L233.199 87.2385L233.852 87.0633C234.436 86.9069 234.372 86.8525 233.26 86.5573C232.047 86.2359 231.382 85.7843 232.072 85.7521C232.26 85.7432 231.826 85.4487 231.107 85.0975C230.134 84.6226 229.984 84.4833 230.518 84.5541C231.605 84.6982 231.385 84.3122 229.93 83.5199C228.492 82.7372 228.339 82.4563 229.184 82.1438C229.718 81.9464 229.701 81.9087 228.857 81.3931C227.419 80.5147 226.032 80.0225 224.467 79.8358L223 79.6608L224.569 78.9315C226.796 77.897 230.472 76.7304 233.208 76.1907C235.894 75.6608 243.965 75.5377 250.197 75.9315C254.372 76.1951 256.395 75.9563 260.043 74.7686C264.88 73.1943 268.702 70.7911 273.08 66.5712C279.276 60.6002 286.009 57.1489 299.465 53.0482C304.007 51.6638 305.495 51.0192 307.681 49.4894C309.522 48.2007 309.563 48.1581 308.794 48.305C307.873 48.481 307.948 48.2151 308.97 47.678C309.796 47.2441 309.802 47.2271 309.207 47.0807C308.725 46.9622 309.075 46.7632 310.841 46.151C313.133 45.3563 313.767 44.8853 312.239 45.1126C311.493 45.2237 311.548 45.1628 312.696 44.6139C313.864 44.0556 313.934 43.9769 313.35 43.8817C312.848 43.7998 313.142 43.6272 314.624 43.1359C316.127 42.6372 316.418 42.4651 315.945 42.3534C315.476 42.2426 315.719 42.1024 317.025 41.7305C319.523 41.019 320.128 40.7975 319.496 40.826C318.094 40.8887 318.049 40.6976 319.365 40.2661C320.156 40.0067 320.597 39.7828 320.345 39.7687C319.365 39.7138 319.998 39.3192 322.237 38.5896C323.522 38.1707 324.521 37.7428 324.456 37.6385C324.392 37.5341 323.897 37.3644 323.356 37.2611L322.372 37.0734L324.072 36.5247L325.772 35.9761L324.726 35.8218L323.68 35.6678L325.249 35.3066C327.981 34.678 329.175 33.8864 330.743 31.6647C332.315 29.4369 334.532 25.3888 334.532 24.7471C334.532 24.2515 333.55 23.7016 331.917 23.2826C331.27 23.1168 330.572 22.9236 330.367 22.8532C330.149 22.7792 331.001 22.1545 332.398 21.3627C335.695 19.4937 338.819 17.2283 342.355 14.142C346.112 10.8632 347.45 10.1069 349.638 10.0269C351.265 9.96729 351.291 9.95396 353.622 7.9979C354.913 6.915 356.866 5.4239 357.962 4.6841ZM270.259 110.247L276.798 109.787L285.245 107.679C285.44 107.218 285.346 107.167 284.977 107.473C284.761 107.652 284.585 107.721 284.585 107.627C284.585 107.533 284.761 107.034 284.977 106.517C285.193 106.001 285.374 105.093 285.381 104.499C285.398 102.968 285.847 102.143 287.237 101.089C288.668 100.005 290.338 97.609 291.128 95.5055C291.736 93.8859 292.43 90.6367 292.43 89.4061C292.43 88.6574 292.091 88.3959 291.778 88.9024C291.691 89.0442 290.205 90.2379 288.477 91.5552C286.748 92.8726 284.665 94.7178 283.848 95.6558C279.84 100.256 278.394 101.448 273.928 103.835C273.093 104.282 272.565 104.525 272.168 104.905C271.453 105.589 271.159 106.713 270.259 110.247ZM293.17 105.701L293.844 105.532H309.267L321.583 108.93C321.679 108.647 321.821 108.307 321.98 107.996C322.63 106.721 322.668 106.226 322.077 106.717C321.692 107.036 321.669 106.982 321.841 106.16C321.946 105.66 322.214 104.956 322.438 104.596L322.845 103.943L322.282 104.441C321.526 105.109 321.551 104.641 322.377 102.635C323.126 100.817 323.176 100.485 322.634 100.935C322.072 101.401 322.124 100.883 322.764 99.6278C323.453 98.2771 323.424 98.1006 322.634 98.8433C321.843 99.586 321.814 99.2842 322.503 97.4733C322.909 96.405 323.049 96.0494 322.964 95.9827C322.918 95.9467 322.806 95.9953 322.634 96.0614C322.116 96.2602 322.117 96.2554 323.037 94.4576L323.832 92.9035L323.304 91.5627C322.733 90.1148 320.573 86.5094 319.356 84.9723L318.603 84.0212L315.815 84.7505C314.282 85.1517 312.973 85.5353 312.905 85.6033C312.837 85.6713 312.283 86.8334 311.674 88.1859C309.993 91.9186 307.869 94.9853 305.018 97.7994C302.072 100.705 299.251 102.657 294.961 104.757C294.311 105.075 293.695 105.401 293.17 105.701ZM322.462 109.173L322.405 109.157C322.43 109.155 322.449 109.16 322.462 109.173ZM328.586 110.805L336.345 112.832C336.032 112.087 335.84 111.427 335.84 110.97C335.84 110.476 335.734 110.334 335.447 110.444C335.144 110.56 335.055 110.385 335.055 109.67C335.055 109.162 335.19 108.489 335.355 108.175C335.652 107.608 335.65 107.607 335.093 108.102C334.423 108.697 334.337 108.239 334.924 107.211C335.415 106.353 335.408 106.147 334.894 106.344C334.55 106.476 334.507 106.39 334.666 105.878C334.772 105.533 335.021 104.932 335.219 104.544C335.734 103.532 335.652 103.313 335.043 104.073L334.519 104.727L334.692 103.943C334.787 103.511 335.084 102.695 335.352 102.128C335.966 100.832 335.962 100.744 335.317 101.328C334.627 101.952 334.652 101.608 335.369 100.601C335.837 99.9422 335.862 99.8263 335.499 99.9722C335.255 100.071 334.868 100.226 334.64 100.318C334.325 100.446 334.396 100.146 334.935 99.0763C335.325 98.3009 335.873 97.343 336.152 96.9474C336.742 96.1121 336.619 96.0499 335.639 96.6859L334.934 97.1435L335.648 95.9202C336.476 94.5034 336.498 94.3977 335.97 94.3977C335.805 94.3977 335.694 94.4146 335.647 94.3678C335.557 94.2782 335.697 93.9558 336.121 92.8376C336.777 91.1127 336.674 89.7649 335.729 87.7006C334.657 85.358 334.156 84.791 333.274 84.9205L332.513 85.0322L332.088 88.2113C331.854 89.9597 331.26 93.4498 330.768 95.9667C329.687 101.495 328.754 107.937 328.586 110.805Z" fill="white"/>
</svg>
