<svg width="112" height="94" viewBox="0 0 112 94" fill="none" xmlns="http://www.w3.org/2000/svg">
<path fill-rule="evenodd" clip-rule="evenodd" d="M102.747 1.23407C102.005 1.9152 100.734 2.92043 99.9225 3.46816C99.1109 4.01588 97.665 5.11985 96.7093 5.9216C94.9835 7.36981 94.9641 7.37969 93.7591 7.42383C92.1393 7.48308 91.1488 8.043 88.3674 10.4705C85.7492 12.7555 83.4363 14.4328 80.9952 15.8165C79.9609 16.4028 79.3305 16.8653 79.4912 16.9201C79.6434 16.9722 80.16 17.1152 80.6392 17.238C81.8481 17.5482 82.5753 17.9553 82.5753 18.3222C82.5753 18.7973 80.9336 21.7944 79.7699 23.4438C78.6093 25.0887 77.7251 25.6748 75.7021 26.1403L74.5404 26.4076L75.3148 26.5217L76.0893 26.6359L74.8308 27.0421L73.5723 27.4483L74.3005 27.5873C74.7011 27.6638 75.0678 27.7894 75.1154 27.8667C75.1632 27.9439 74.4239 28.2607 73.4725 28.5708C71.8146 29.111 71.346 29.4032 72.0719 29.4438C72.2581 29.4543 71.9315 29.62 71.3458 29.8121C70.3716 30.1315 70.4047 30.2731 71.4426 30.2266C71.9112 30.2055 71.4633 30.3695 69.6138 30.8963C68.6465 31.1716 68.4666 31.2754 68.8142 31.3575C69.164 31.4402 68.9487 31.5676 67.8356 31.9368C66.7388 32.3006 66.5206 32.4284 66.8928 32.489C67.3249 32.5594 67.273 32.6177 66.4087 33.0311C65.5588 33.4375 65.5175 33.4826 66.0699 33.4003C67.2016 33.232 66.7321 33.5807 65.0351 34.1691C63.7274 34.6224 63.4682 34.7697 63.825 34.8574C64.266 34.9658 64.2612 34.9784 63.6498 35.2996C62.8931 35.6973 62.8378 35.8942 63.5193 35.7639C64.0887 35.6551 64.0589 35.6867 62.6956 36.6408C61.0773 37.7734 59.975 38.2507 56.6124 39.2756C46.6503 42.3116 41.665 44.8669 37.0781 49.2877C33.8365 52.412 31.0067 54.1912 27.4258 55.3568C24.7248 56.2362 23.2268 56.4129 20.1356 56.2178C15.5216 55.9262 9.5466 56.0174 7.55782 56.4096C5.53206 56.8093 2.81027 57.673 1.16167 58.4389L0 58.9789L1.08597 59.1084C2.24454 59.2466 3.27184 59.611 4.33651 60.2614C4.9613 60.6432 4.97349 60.671 4.57853 60.8172C3.95316 61.0486 4.06584 61.2565 5.1307 61.836C6.20834 62.4226 6.37098 62.7084 5.56633 62.6017C5.17039 62.5493 5.28191 62.6525 6.00195 63.0041C6.53439 63.2641 6.85597 63.4821 6.71657 63.4887C6.20544 63.5125 6.69818 63.8468 7.59595 64.0848C8.41977 64.3034 8.46682 64.3437 8.03487 64.4594L7.55085 64.5891L7.97156 64.818C8.20292 64.944 8.85636 65.1497 9.42365 65.2749C10.2883 65.4658 10.3772 65.5222 9.97293 65.623C9.25424 65.8027 9.75472 66.0118 11.2341 66.15C12.509 66.2689 12.6273 66.5632 11.4231 66.6196C10.9398 66.6422 10.9888 66.6769 11.7135 66.8261C12.1927 66.9249 12.9332 67.0095 13.3592 67.0139C13.7851 67.0184 13.9594 67.0658 13.7464 67.1195C12.3861 67.461 13.7116 67.5601 16.2047 67.303C16.8827 67.2331 16.7089 67.5051 15.9151 67.7561L15.2953 67.952L15.9729 67.8594C17.3493 67.6714 19.4535 67.1952 19.8535 66.981C20.08 66.8598 20.3095 66.8043 20.3629 66.8579C20.4165 66.9113 20.213 67.0893 19.9106 67.2531C19.1271 67.6777 19.4287 67.6352 21.1224 67.0823C21.9379 66.8161 22.6527 66.5983 22.711 66.5983C22.7693 66.5983 22.6123 66.8161 22.3621 67.0823C21.9776 67.4916 21.9586 67.5663 22.2394 67.5663C22.7333 67.5663 24.0986 66.8244 24.9623 66.0865C25.8744 65.3074 26.2237 65.2397 25.6649 65.9502C24.8498 66.9863 25.5079 66.637 26.8152 65.3398C27.5546 64.606 28.2195 64.0658 28.2928 64.1392C28.3662 64.2126 28.2677 64.4478 28.0737 64.6621C27.4028 65.4035 27.9081 65.2329 28.658 64.465C29.0719 64.041 29.4652 63.6941 29.5316 63.6941C29.598 63.6941 29.6138 63.9555 29.567 64.2749C29.5201 64.5944 29.525 64.8558 29.5778 64.8558C29.6307 64.8558 30.0398 64.2941 30.487 63.6077C31.5337 62.0012 31.761 61.8091 31.9352 62.3831C32.0361 62.7154 32.0963 62.7518 32.1817 62.5324C32.3825 62.0155 34.0073 59.8219 34.1895 59.8219C34.2865 59.8219 34.366 59.9961 34.366 60.2091C34.366 60.4221 34.4532 60.5963 34.5596 60.5963C34.6661 60.5963 34.7552 60.4437 34.7575 60.2575C34.7734 58.987 36.948 56.2393 38.5304 55.49C39.1209 55.2104 39.6274 54.9816 39.6557 54.9816C39.6841 54.9816 39.5589 55.8745 39.3771 56.9661C39.1955 58.0577 38.9186 60.4006 38.7618 62.1729C38.4981 65.1531 38.4299 65.4829 37.8536 66.5644C37.2156 67.7611 35.7827 69.2838 33.6454 71.0366C32.2183 72.207 32.1314 72.3493 31.8466 73.9853C31.6772 74.958 31.4493 75.4806 30.8489 76.274C30.402 76.8645 30.2063 77.25 30.3891 77.1799C30.7476 77.0422 30.7197 77.1061 29.8801 78.3466C29.1842 79.3745 29.1925 79.4587 29.9509 79.0666L30.5695 78.7466L30.0406 79.3753C29.7498 79.721 29.3749 80.2684 29.2076 80.5917L28.9037 81.1797L29.4378 80.7594C30.2231 80.1418 30.2249 80.3801 29.4421 81.4053C28.6297 82.4698 28.5594 82.8026 29.2413 82.3559C29.9052 81.9209 30.0429 82.1354 29.5469 82.832C29.3223 83.1474 29.1385 83.6016 29.1385 83.8411C29.1385 84.2647 29.1494 84.267 29.5257 83.9265C29.7387 83.7338 29.913 83.6167 29.913 83.6665C29.913 83.7162 29.7387 84.1176 29.5257 84.5584C29.0175 85.6101 29.0289 85.922 29.5587 85.457C29.9718 85.0942 29.9765 85.0942 29.8427 85.4593C29.5927 86.1414 29.4717 88.2173 29.7006 87.8955C29.8818 87.6405 29.9074 87.643 29.9101 87.9149C29.9116 88.0853 30.196 88.6049 30.5422 89.0696C30.8884 89.5342 31.4764 90.5275 31.8491 91.2767C32.2988 92.1811 32.7014 92.7219 33.0466 92.8855C33.3323 93.021 34.857 93.2119 36.4348 93.3097C38.0123 93.4074 39.4774 93.5248 39.6903 93.5705C40.2359 93.6876 40.7552 93.3716 40.7552 92.9226C40.7552 92.6309 40.8876 92.5422 41.3231 92.5422C41.943 92.5422 42.2309 92.0651 42.0174 91.3923C41.9349 91.1325 42.0203 90.9515 42.2948 90.8047C42.7664 90.5523 42.8261 89.7311 42.385 89.5619C41.871 89.3646 40.4778 89.4299 38.9463 89.723C37.1589 90.0649 36.3937 89.8947 35.3078 88.9137C33.7163 87.4758 33.6605 86.8258 34.7593 82.5269C36.0412 77.5123 35.8572 77.8651 37.7056 76.8769C41.0121 75.1092 42.0824 74.2267 45.0501 70.8211C45.6553 70.1266 47.1972 68.7605 48.477 67.7851C49.7566 66.8099 50.8567 65.926 50.9215 65.8211C51.1533 65.4461 51.4038 65.6397 51.4038 66.194C51.4038 67.1051 50.8904 69.5108 50.44 70.7098C49.8549 72.2672 48.6187 74.0415 47.5595 74.844C46.5299 75.6238 46.1974 76.2345 46.185 77.3685C46.1802 77.808 46.0456 78.4804 45.8859 78.8628C45.7262 79.245 45.5955 79.6148 45.5955 79.6845C45.5955 79.7542 45.7262 79.7029 45.8859 79.5702C46.3252 79.2057 46.2385 79.5257 45.5827 80.6874C44.9529 81.8035 44.9169 82.1491 45.4975 81.5075C46.0774 80.8668 46.1858 81.0647 45.7773 82.0179C45.385 82.9329 45.3872 83.419 45.7802 82.6847C45.8991 82.4626 46.0911 82.2808 46.2069 82.2808C46.3564 82.2808 46.355 82.3557 46.2027 82.5395C46.0846 82.6818 45.8569 83.1828 45.6968 83.6527C45.4079 84.5007 45.4085 84.504 45.7736 84.0717C46.2768 83.476 46.375 83.5245 46.1628 84.2639C45.9016 85.1745 45.937 85.2864 46.3637 84.9002C46.739 84.5606 46.7428 84.5702 46.6271 85.5478C46.5463 86.2301 46.5787 86.5402 46.7303 86.5402C46.8515 86.5402 46.9545 86.4314 46.9589 86.2982C46.9634 86.1652 47.1157 86.3176 47.2977 86.637C47.4795 86.9565 47.7303 87.2179 47.8546 87.2179C48.3322 87.2179 49.8962 88.5191 50.3963 89.3327C51.2946 90.7941 51.6139 90.8965 55.2726 90.8965H58.4639L58.7198 90.3641C58.8606 90.0711 59.0691 89.8316 59.1831 89.8316C59.3086 89.8316 59.346 89.6098 59.2776 89.2682C59.1988 88.8746 59.2499 88.6725 59.447 88.5968C59.8242 88.452 59.8074 87.7733 59.4228 87.6258C58.9135 87.4303 58.0075 87.4922 56.8006 87.8051C55.7949 88.0657 55.4796 88.0684 54.2095 87.8287C53.4141 87.6785 52.5512 87.4165 52.2919 87.2467C52.0325 87.0767 51.5307 86.348 51.1765 85.627C50.5477 84.347 50.533 84.2597 50.5471 81.8949C50.5552 80.5273 50.6546 79.3005 50.7752 79.0763C50.8946 78.8546 52 78.1845 53.2778 77.5592C56.454 76.0047 58.5429 74.5598 60.7235 72.4081C62.8349 70.3247 64.407 68.0542 65.6515 65.2906C66.1026 64.2892 66.5127 63.4288 66.563 63.3785C66.6132 63.3282 67.583 63.0441 68.7179 62.7471L70.7816 62.2072L71.3392 62.9113C72.2407 64.0494 73.8395 66.7187 74.2622 67.7907L74.6535 68.7834L74.0645 69.934C73.3832 71.2651 73.3824 71.2686 73.766 71.1214C74.1292 70.982 74.1325 70.9477 73.669 72.1667C73.1594 73.5075 73.1807 73.7309 73.766 73.181C74.3512 72.6312 74.3729 72.7619 73.8628 73.7619C73.3888 74.691 73.3505 75.0748 73.766 74.7299C74.1677 74.3965 74.1305 74.6422 73.576 75.9884C72.9644 77.4732 72.946 77.8198 73.5056 77.3253L73.9228 76.9565L73.6213 77.4405C73.4556 77.7067 73.2566 78.2277 73.1789 78.5983C73.0517 79.2066 73.0688 79.2467 73.3536 79.0103C73.7911 78.6471 73.7634 79.0136 73.2819 79.9575C73.069 80.3749 72.8947 80.8641 72.8947 81.0446C72.8947 81.3456 72.9267 81.3437 73.2819 81.0223C73.7313 80.6157 73.7877 80.8494 73.3725 81.3981C73.2163 81.6049 73.091 81.9969 73.0941 82.2694C73.0994 82.6994 73.1263 82.7201 73.2974 82.426C73.6136 81.8833 73.8628 82.0328 73.8628 82.7648C73.8628 83.1375 73.9489 83.4206 74.0543 83.3941C74.1594 83.3673 74.6663 84.2605 75.1805 85.3786C75.6947 86.4967 76.2651 87.724 76.4481 88.1058C76.6415 88.5093 77.0895 88.9735 77.5176 89.2142C79.0386 90.069 82.6425 90.5472 83.1308 89.959C83.2492 89.8161 83.2911 89.644 83.2237 89.5765C83.1561 89.5091 83.1985 89.3362 83.3178 89.1925C83.4583 89.0231 83.4833 88.6301 83.3886 88.076L83.2427 87.221L82.0107 86.8885C79.6093 86.2403 78.3058 84.8816 78.1607 82.8754C78.0653 81.5563 78.8519 75.8411 79.7882 71.0513C80.1526 69.1878 80.5923 66.6039 80.7656 65.3094L81.0804 62.9557L81.6438 62.873C82.2969 62.7771 82.6676 63.1969 83.4616 64.9313C84.1613 66.4596 84.2376 67.4575 83.7521 68.7346C83.2729 69.9956 83.2831 69.8897 83.6401 69.8897C84.0307 69.8897 84.0142 69.9679 83.4018 71.0169L82.8729 71.9226L83.3948 71.5838C84.1205 71.1129 84.2111 71.159 83.7749 71.7774C83.5683 72.0703 83.1627 72.7795 82.8735 73.3536C82.4744 74.1454 82.4217 74.3673 82.655 74.2732C82.8241 74.2049 83.1104 74.0897 83.2914 74.0169C83.5596 73.9088 83.5418 73.9946 83.1946 74.4823C82.6638 75.2277 82.6456 75.4823 83.1561 75.0204C83.6339 74.588 83.6368 74.6533 83.1826 75.6132C82.9842 76.0326 82.7642 76.637 82.6936 76.9565L82.5654 77.5373L82.9532 77.0533C83.4043 76.4904 83.4649 76.6523 83.0839 77.4018C82.9375 77.6893 82.7532 78.1338 82.6742 78.3894C82.5571 78.7687 82.5883 78.8322 82.8434 78.7344C83.2235 78.5884 83.2289 78.7414 82.8657 79.3766C82.4307 80.1377 82.4947 80.4761 82.9908 80.0359C83.403 79.6697 83.4045 79.6701 83.1844 80.0899C83.0622 80.3226 82.9625 80.8208 82.9625 81.1971C82.9625 81.7259 83.0285 81.856 83.2529 81.77C83.4649 81.6885 83.5433 81.7937 83.5433 82.1594C83.5433 83.4938 85.7517 87.1571 86.9625 87.8314C88.6069 88.747 91.543 89.1989 92.0305 88.6113C92.1471 88.4709 92.2146 87.815 92.1831 87.1317C92.1155 85.6729 91.9678 85.5234 90.2679 85.1935C88.1294 84.7784 87.128 83.3712 87.1619 80.8287C87.1863 78.9785 88.2802 70.0639 88.676 68.4889C89.0183 67.1264 89.7313 65.6924 90.7565 64.3047C92.5722 61.847 94.1378 58.0792 94.6357 54.9688C94.9029 53.3006 95.4259 52.0774 95.8719 52.0774C96.0046 52.0774 96.2187 51.707 96.3477 51.2546C96.4921 50.7473 96.6117 50.5616 96.6598 50.7705C96.7918 51.3467 97.0727 51.1452 97.1993 50.3833C97.3868 49.2551 97.4778 49.0447 97.6547 49.3308C97.7525 49.4892 97.8977 49.2844 98.0698 48.7446C98.2799 48.0853 98.3492 48.0044 98.4063 48.3504C98.5333 49.1184 98.8691 48.8154 98.8354 47.9632C98.78 46.5647 98.8309 46.0755 99.0323 46.0755C99.1388 46.0755 99.2259 46.2236 99.2259 46.4046C99.2259 46.6259 99.2898 46.6698 99.4212 46.5384C99.5287 46.4309 99.6253 45.7566 99.6362 45.0396C99.6534 43.8933 99.6877 43.7781 99.9215 44.083C100.151 44.3817 100.171 44.1879 100.066 42.6873L99.9436 40.9447L100.373 41.4288L100.802 41.9128L100.705 41.4288C100.652 41.1626 100.553 40.5091 100.484 39.9767C100.388 39.2266 100.41 39.0741 100.583 39.2991C100.755 39.5242 100.784 39.3283 100.711 38.4278C100.659 37.7889 100.557 37.0919 100.484 36.8789C100.375 36.5604 100.424 36.5776 100.762 36.9757L101.172 37.4597L101.081 36.9757C101.031 36.7095 100.939 36.0561 100.877 35.5236C100.773 34.6332 100.788 34.5854 101.058 34.9287C101.22 35.1339 101.4 35.253 101.46 35.1935C101.556 35.0973 101.156 33.0665 100.838 32.0402C100.733 31.6986 100.756 31.6851 101.042 31.9225C101.49 32.2942 101.556 32.1507 101.35 31.2588C101.251 30.8357 101.17 30.0541 101.168 29.5217L101.165 28.5536L101.568 29.1345L101.971 29.7153L101.849 29.1345C101.45 27.2369 101.487 26.8301 102.183 25.4218C103.615 22.5234 105.042 20.3699 107.94 16.7342C110.548 13.4616 111.991 11.0047 112 9.8188C112.006 9.12354 110.994 8.03565 109.971 7.63797C109.211 7.34194 109.205 7.3429 109.641 7.69121C110.519 8.39112 110.139 9.32626 108.457 10.6089C106.413 12.1677 105.181 12.4086 104.676 11.3489C103.913 9.74969 106.141 4.83622 107.629 4.83622C107.906 4.83622 108.132 4.79072 108.132 4.73534C108.132 4.4064 107.009 3.02363 106.549 2.78568C106.167 2.588 106.002 2.35489 106.002 2.01123C106.002 1.097 105.147 0.00987094 104.42 0.00019037C104.242 -0.00213297 103.49 0.553142 102.747 1.23407Z" fill="#2A3959"/>
</svg>
