<svg id="bear-land" xmlns="http://www.w3.org/2000/svg" width="1442" height="100" viewBox="0 0 1442 100">
  <path id="bear-land-2" data-name="bear-land" d="M0,55.752V100H1442V55.752l-2.77-.2-6.76-4.96h-9.1l-7.15,1.812-14-23.386-12.34-3.168-13.65-4.525L1362.58,8.218,1353.49,4.6l-13.65-.9-13,2.713-22.09,5.426-7.15-3.624-10.4-1.8L1273.55.99,1264.91,0l-5,3.7-16.25,9.5-7.8,9.04-9.74,8.129-9.75,1.356-14.95,4.98-23.39,5.871-22.75.9-6.49-3.614-8.45-3.158-6.5-1.356-4.55,1.356h-9.1l-20.14,8.129-13,4.525L1070.8,51.17l-14.94-4.07h-17.55l-17.54,5.416h-5.85l-8.45-1.347L987.62,47.1l-7.14-3.624-24.05,1.356-6.5,2.267-13.64,2.257-10.4,5.426-7.8-2.267-9.1-4.059L894.7,42.119H880.4l-9.1,2.713H857.01l-11.05-4.069-5.85-2.257-4.55-4.069-9.1-4.069h-9.1l-4.54-3.158-3.9-1.356-4.55,1.356-24.05,7.228L764.08,47.1l-14.95,2.257-16.9,5.426H703v-.238h-1.95l-9.1,3-5.85,1.287-15.59,1.713-22.75-.861-6.49-2.139-7.8-3h-9.1l-7.15,1.713h-13l-12.34-3-13.65-4.277L564.58,36.555l-9.09-3.426-13.65-.851-13,2.564-22.09,5.139-7.15-3.426-10.4-1.713L475.55,29.7h-9.09l-4.55,2.574-16.25,8.99-7.8,8.564-9.74,7.713-9.75,1.287-14.95,4.713-23.39,5.564-22.75.851-6.5-3.426-8.44-2.99-6.5-1.287-4.55,1.287h-9.1l-20.14,7.7-13,4.287L272.8,77.24l-14.94-3.851H240.31l-17.54,5.139h-5.85l-8.45-1.287L189.62,73.39l-7.14-3.436-24.05,1.287-6.5,2.149-13.64,2.139-10.4,5.139-7.8-2.139-9.1-3.861L96.7,68.678H82.4l-9.1,2.564H59.01L47.96,67.391l-5.85-2.139-4.55-3.861-9.1-3.851h-9.1l-4.54-3-3.9-1.287L6.37,54.54Z" fill="#2a3959" fill-rule="evenodd"/>
  <path id="bear-land-3" data-name="bear-land" d="M0,55.752V100H1442V55.752l-2.77-.2-6.76-4.96h-9.1l-7.15,1.812-14-23.386-12.34-3.168-13.65-4.525L1362.58,8.218,1353.49,4.6l-13.65-.9-13,2.713-22.09,5.426-7.15-3.624-10.4-1.8L1273.55.99,1264.91,0l-5,3.7-16.25,9.5-7.8,9.04-9.74,8.129-9.75,1.356-14.95,4.98-23.39,5.871-22.75.9-6.49-3.614-8.45-3.158-6.5-1.356-4.55,1.356h-9.1l-20.14,8.129-13,4.525L1070.8,51.17l-14.94-4.07h-17.55l-17.54,5.416h-5.85l-8.45-1.347L987.62,47.1l-7.14-3.624-24.05,1.356-6.5,2.267-13.64,2.257-10.4,5.426-7.8-2.267-9.1-4.059L894.7,42.119H880.4l-9.1,2.713H857.01l-11.05-4.069-5.85-2.257-4.55-4.069-9.1-4.069h-9.1l-4.54-3.158-3.9-1.356-4.55,1.356-24.05,7.228L764.08,47.1l-14.95,2.257-16.9,5.426H703v-.238h-1.95l-9.1,3-5.85,1.287-15.59,1.713-22.75-.861-6.49-2.139-7.8-3h-9.1l-7.15,1.713h-13l-12.34-3-13.65-4.277L564.58,36.555l-9.09-3.426-13.65-.851-13,2.564-22.09,5.139-7.15-3.426-10.4-1.713L475.55,29.7h-9.09l-4.55,2.574-16.25,8.99-7.8,8.564-9.74,7.713-9.75,1.287-14.95,4.713-23.39,5.564-22.75.851-6.5-3.426-8.44-2.99-6.5-1.287-4.55,1.287h-9.1l-20.14,7.7-13,4.287L272.8,77.24l-14.94-3.851H240.31l-17.54,5.139h-5.85l-8.45-1.287L189.62,73.39l-7.14-3.436-24.05,1.287-6.5,2.149-13.64,2.139-10.4,5.139-7.8-2.139-9.1-3.861L96.7,68.678H82.4l-9.1,2.564H59.01L47.96,67.391l-5.85-2.139-4.55-3.861-9.1-3.851h-9.1l-4.54-3-3.9-1.287L6.37,54.54Z" fill="#2a3959" fill-rule="evenodd"/>
</svg>
