<svg width="152" height="127" viewBox="0 0 152 127" fill="none" xmlns="http://www.w3.org/2000/svg">
<path fill-rule="evenodd" clip-rule="evenodd" d="M138.778 1.66658C137.776 2.58656 136.059 3.94429 134.962 4.68409C133.866 5.42389 131.913 6.91499 130.622 7.99789C128.291 9.95395 128.265 9.96729 126.638 10.0269C124.45 10.1069 123.112 10.8632 119.355 14.142C115.819 17.2282 112.695 19.4937 109.398 21.3626C108.001 22.1545 107.149 22.7792 107.367 22.8532C107.572 22.9236 108.27 23.1168 108.917 23.2826C110.55 23.7015 111.532 24.2515 111.532 24.747C111.532 25.3888 109.315 29.4369 107.743 31.6647C106.175 33.8864 104.981 34.678 102.249 35.3066L100.68 35.6678L101.726 35.8218L102.772 35.9761L101.072 36.5247L99.3721 37.0734L100.356 37.2611C100.897 37.3644 101.392 37.5341 101.456 37.6385C101.521 37.7428 100.522 38.1706 99.2371 38.5896C96.9979 39.3192 96.365 39.7138 97.3454 39.7687C97.597 39.7828 97.1558 40.0067 96.3647 40.2661C95.0489 40.6976 95.0936 40.8887 96.4955 40.826C97.1283 40.7975 96.5235 41.019 94.0253 41.7305C92.7188 42.1024 92.4759 42.2425 92.9453 42.3534C93.4178 42.4651 93.1271 42.6372 91.6237 43.1358C90.1422 43.6272 89.8475 43.7998 90.3501 43.8817C90.9338 43.9768 90.8637 44.0556 89.6964 44.6139C88.5484 45.1628 88.4927 45.2237 89.2387 45.1126C90.7672 44.8853 90.1331 45.3563 87.841 46.151C86.0748 46.7632 85.7246 46.9622 86.2066 47.0807C86.8023 47.2271 86.7957 47.2441 85.9699 47.6779C84.9479 48.2151 84.8732 48.481 85.7936 48.305C86.5627 48.1581 86.5225 48.2007 84.6812 49.4894C82.4953 51.0192 81.0065 51.6638 76.4647 53.0482C63.0092 57.1489 56.2757 60.6002 50.0804 66.5712C45.702 70.7911 41.8798 73.1943 37.0433 74.7686C33.395 75.9563 31.3718 76.1951 27.1966 75.9315C20.9646 75.5377 12.8943 75.6608 10.2081 76.1906C7.472 76.7304 3.79575 77.897 1.56903 78.9315L0 79.6608L1.46679 79.8358C3.03163 80.0225 4.41918 80.5146 5.8572 81.393C6.70108 81.9087 6.71755 81.9464 6.18408 82.1438C5.33942 82.4563 5.49161 82.7372 6.92989 83.5199C8.38543 84.3122 8.6051 84.6982 7.51828 84.5541C6.9835 84.4832 7.13413 84.6226 8.10667 85.0975C8.82581 85.4487 9.26016 85.7432 9.07188 85.7521C8.38151 85.7842 9.04703 86.2359 10.2596 86.5573C11.3723 86.8525 11.4359 86.9069 10.8525 87.0633L10.1987 87.2385L10.767 87.5476C11.0795 87.7178 11.962 87.9955 12.7282 88.1647C13.8961 88.4226 14.0162 88.4987 13.4701 88.6349C12.4994 88.8776 13.1754 89.16 15.1736 89.3467C16.8956 89.5073 17.0554 89.9048 15.4288 89.9809C14.7761 90.0115 14.8423 90.0583 15.8211 90.2599C16.4683 90.3933 17.4686 90.5075 18.0439 90.5136C18.6192 90.5196 18.8545 90.5836 18.5669 90.6561C16.7295 91.1174 18.5198 91.2513 21.8872 90.904C22.803 90.8096 22.5682 91.177 21.496 91.5159L20.6589 91.7806L21.5742 91.6555C23.4332 91.4016 26.2753 90.7583 26.8156 90.4691C27.1215 90.3054 27.4314 90.2304 27.5036 90.3028C27.576 90.375 27.3012 90.6153 26.8927 90.8365C25.8344 91.41 26.2418 91.3527 28.5295 90.6059C29.6309 90.2463 30.5964 89.9521 30.6751 89.9521C30.7538 89.9521 30.5417 90.2463 30.2039 90.6059C29.6845 91.1587 29.6589 91.2596 30.0381 91.2596C30.7052 91.2596 32.5493 90.2575 33.7159 89.2609C34.9478 88.2086 35.4196 88.1171 34.6649 89.0769C33.564 90.4762 34.4528 90.0044 36.2185 88.2523C37.2172 87.2612 38.1152 86.5316 38.2143 86.6307C38.3134 86.7298 38.1803 87.0476 37.9183 87.3371C37.0122 88.3384 37.6947 88.108 38.7075 87.0708C39.2666 86.4981 39.7977 86.0295 39.8874 86.0295C39.9771 86.0295 39.9986 86.3826 39.9353 86.814C39.872 87.2455 39.8785 87.5986 39.9499 87.5986C40.0213 87.5986 40.5739 86.8399 41.178 85.9129C42.5917 83.7429 42.8987 83.4835 43.134 84.2589C43.2703 84.7076 43.3516 84.7568 43.4669 84.4605C43.7381 83.7623 45.9326 80.7994 46.1787 80.7994C46.3097 80.7994 46.4172 81.0348 46.4172 81.3224C46.4172 81.6101 46.5349 81.8454 46.6787 81.8454C46.8225 81.8454 46.9428 81.6394 46.946 81.3878C46.9674 79.6718 49.9046 75.9605 52.0419 74.9485C52.8395 74.5709 53.5236 74.2618 53.5618 74.2618C53.6002 74.2618 53.4311 75.4678 53.1855 76.9422C52.9402 78.4166 52.5662 81.5811 52.3544 83.9749C51.9983 88.0002 51.9062 88.4456 51.1277 89.9063C50.266 91.5227 48.3307 93.5795 45.4439 95.9469C43.5163 97.5277 43.3989 97.7199 43.0142 99.9296C42.7854 101.243 42.4776 101.949 41.6667 103.021C41.0631 103.818 40.7988 104.339 41.0456 104.244C41.5299 104.058 41.4923 104.145 40.3581 105.82C39.4183 107.209 39.4295 107.322 40.4538 106.793L41.2894 106.361L40.5749 107.21C40.1821 107.677 39.6759 108.416 39.4499 108.853L39.0394 109.647L39.7609 109.079C40.8215 108.245 40.8239 108.567 39.7666 109.952C38.6693 111.389 38.5744 111.839 39.4954 111.236C40.3921 110.648 40.5781 110.938 39.9081 111.879C39.6047 112.305 39.3566 112.918 39.3566 113.242C39.3566 113.814 39.3712 113.817 39.8796 113.357C40.1672 113.097 40.4026 112.938 40.4026 113.006C40.4026 113.073 40.1672 113.615 39.8796 114.21C39.1931 115.631 39.2085 116.052 39.924 115.424C40.4821 114.934 40.4884 114.934 40.3077 115.427C39.9701 116.348 39.8066 119.152 40.1157 118.718C40.3605 118.373 40.395 118.377 40.3987 118.744C40.4008 118.974 40.7849 119.676 41.2525 120.303C41.7201 120.931 42.5142 122.273 43.0176 123.285C43.6251 124.506 44.1688 125.237 44.6351 125.457C45.021 125.641 47.0804 125.898 49.2114 126.03C51.3421 126.162 53.321 126.321 53.6086 126.383C54.3455 126.541 55.0469 126.114 55.0469 125.508C55.0469 125.114 55.2258 124.994 55.8139 124.994C56.6512 124.994 57.0401 124.349 56.7516 123.441C56.6402 123.09 56.7556 122.845 57.1264 122.647C57.7634 122.306 57.844 121.197 57.2483 120.968C56.554 120.702 54.6721 120.79 52.6036 121.186C50.1894 121.648 49.156 121.418 47.6892 120.093C45.5396 118.151 45.4643 117.273 46.9483 111.466C48.6798 104.693 48.4313 105.17 50.9279 103.835C55.3939 101.448 56.8395 100.256 60.8479 95.6558C61.6653 94.7178 63.748 92.8726 65.4765 91.5551C67.2048 90.2379 68.6907 89.0442 68.7783 88.9024C69.0913 88.3959 69.4297 88.6574 69.4297 89.4061C69.4297 90.6367 68.7362 93.8859 68.1279 95.5054C67.3376 97.609 65.6679 100.005 64.2372 101.089C62.8465 102.143 62.3975 102.967 62.3808 104.499C62.3743 105.093 62.1925 106.001 61.9768 106.517C61.761 107.034 61.5845 107.533 61.5845 107.627C61.5845 107.721 61.761 107.652 61.9768 107.473C62.5701 106.981 62.453 107.413 61.5673 108.982C60.7166 110.489 60.668 110.956 61.4522 110.09C62.2354 109.224 62.3819 109.492 61.8301 110.779C61.3003 112.015 61.3031 112.671 61.834 111.68C61.9946 111.38 62.254 111.134 62.4104 111.134C62.6122 111.134 62.6104 111.235 62.4046 111.483C62.2451 111.676 61.9376 112.352 61.7213 112.987C61.3311 114.132 61.3319 114.137 61.8251 113.553C62.5048 112.748 62.6373 112.814 62.3507 113.813C61.998 115.043 62.0458 115.194 62.6222 114.672C63.129 114.213 63.1342 114.226 62.9778 115.547C62.8688 116.468 62.9125 116.887 63.1172 116.887C63.2809 116.887 63.42 116.74 63.426 116.56C63.4321 116.381 63.6379 116.586 63.8837 117.018C64.1292 117.449 64.4679 117.802 64.6358 117.802C65.2809 117.802 67.3934 119.56 68.0688 120.659C69.2822 122.633 69.7134 122.771 74.6551 122.771H78.9655L79.3112 122.052C79.5013 121.656 79.783 121.333 79.937 121.333C80.1064 121.333 80.1569 121.033 80.0646 120.572C79.9582 120.04 80.0272 119.767 80.2934 119.665C80.8028 119.469 80.7801 118.553 80.2607 118.353C79.5727 118.089 78.3491 118.173 76.7189 118.596C75.3606 118.948 74.9346 118.951 73.2192 118.627C72.1449 118.425 70.9794 118.071 70.6292 117.841C70.2788 117.612 69.601 116.627 69.1227 115.654C68.2733 113.925 68.2534 113.807 68.2725 110.613C68.2835 108.766 68.4177 107.109 68.5806 106.806C68.7419 106.506 70.2349 105.601 71.9608 104.757C76.2508 102.657 79.0722 100.705 82.0175 97.7994C84.8692 94.9853 86.9927 91.9186 88.6736 88.1859C89.2829 86.8334 89.8368 85.6713 89.9048 85.6033C89.9725 85.5353 91.2824 85.1517 92.8153 84.7505L95.6027 84.0212L96.3559 84.9723C97.5734 86.5094 99.7329 90.1148 100.304 91.5627L100.832 92.9035L100.037 94.4576C99.1166 96.2554 99.1155 96.2601 99.6336 96.0614C100.124 95.8731 100.129 95.8268 99.5026 97.4733C98.8143 99.2842 98.843 99.586 99.6336 98.8433C100.424 98.1006 100.453 98.2771 99.7643 99.6278C99.1242 100.883 99.0724 101.401 99.6336 100.935C100.176 100.485 100.126 100.817 99.377 102.635C98.5509 104.641 98.5261 105.109 99.2819 104.441L99.8454 103.943L99.4382 104.596C99.2144 104.956 98.9455 105.66 98.8407 106.16C98.6689 106.982 98.6919 107.036 99.0766 106.717C99.6676 106.226 99.6302 106.721 98.9798 107.996C98.6921 108.56 98.4568 109.221 98.4568 109.464C98.4568 109.871 98.4999 109.868 98.9798 109.434C99.5868 108.885 99.6629 109.201 99.1022 109.942C98.8912 110.221 98.722 110.751 98.7262 111.119C98.7332 111.699 98.7696 111.727 99.0007 111.33C99.4278 110.597 99.7643 110.799 99.7643 111.788C99.7643 112.291 99.8807 112.674 100.023 112.638C100.165 112.602 100.85 113.808 101.544 115.318C102.239 116.828 103.009 118.486 103.256 119.002C103.517 119.547 104.123 120.174 104.701 120.499C106.755 121.653 111.623 122.299 112.282 121.505C112.442 121.312 112.499 121.079 112.408 120.988C112.317 120.897 112.374 120.664 112.535 120.47C112.725 120.241 112.759 119.71 112.631 118.961L112.433 117.807L110.77 117.358C107.526 116.482 105.765 114.647 105.569 111.937C105.441 110.155 106.503 102.436 107.768 95.9667C108.26 93.4497 108.854 89.9597 109.088 88.2113L109.513 85.0321L110.274 84.9205C111.156 84.791 111.657 85.358 112.729 87.7006C113.674 89.7649 113.777 91.1127 113.121 92.8376C112.474 94.5407 112.488 94.3977 112.97 94.3977C113.498 94.3977 113.476 94.5034 112.648 95.9202L111.934 97.1435L112.639 96.6859C113.619 96.0499 113.742 96.1121 113.152 96.9474C112.873 97.343 112.325 98.3009 111.935 99.0763C111.396 100.146 111.325 100.446 111.64 100.318C111.868 100.226 112.255 100.071 112.499 99.9722C112.862 99.8263 112.837 99.9421 112.369 100.601C111.652 101.608 111.627 101.952 112.317 101.328C112.962 100.744 112.966 100.832 112.352 102.128C112.084 102.695 111.787 103.511 111.692 103.943L111.519 104.727L112.043 104.073C112.652 103.313 112.734 103.532 112.219 104.544C112.021 104.932 111.772 105.533 111.666 105.878C111.507 106.39 111.55 106.476 111.894 106.344C112.408 106.147 112.415 106.353 111.924 107.211C111.337 108.239 111.423 108.697 112.093 108.102C112.65 107.607 112.652 107.608 112.355 108.175C112.19 108.489 112.055 109.162 112.055 109.67C112.055 110.385 112.144 110.56 112.447 110.444C112.734 110.334 112.84 110.476 112.84 110.97C112.84 112.772 115.822 117.72 117.458 118.631C119.679 119.868 123.644 120.478 124.303 119.684C124.46 119.495 124.552 118.609 124.509 117.686C124.418 115.716 124.218 115.514 121.922 115.068C119.034 114.507 117.681 112.607 117.727 109.173C117.76 106.674 119.238 94.6331 119.772 92.5057C120.234 90.6655 121.198 88.7285 122.582 86.8543C125.035 83.5348 127.149 78.4456 127.822 74.2445C128.183 71.9914 128.889 70.3392 129.492 70.3392C129.671 70.3392 129.96 69.8389 130.134 69.2278C130.329 68.5427 130.491 68.2919 130.556 68.574C130.734 69.3523 131.113 69.0801 131.284 68.051C131.538 66.5272 131.66 66.243 131.899 66.6295C132.031 66.8434 132.228 66.5667 132.46 65.8377C132.744 64.9472 132.837 64.8379 132.915 65.3052C133.086 66.3426 133.54 65.9334 133.494 64.7822C133.419 62.8934 133.488 62.2325 133.76 62.2325C133.904 62.2325 134.022 62.4326 134.022 62.6771C134.022 62.976 134.108 63.0354 134.285 62.8578C134.431 62.7127 134.561 61.8018 134.576 60.8335C134.599 59.2851 134.645 59.1295 134.961 59.5414C135.271 59.9449 135.297 59.6831 135.156 57.6562L134.991 55.3027L135.57 55.9564L136.15 56.6102L136.02 55.9564C135.948 55.5968 135.814 54.7143 135.721 53.9951C135.591 52.9821 135.621 52.776 135.854 53.0799C136.087 53.384 136.126 53.1193 136.028 51.9031C135.958 51.0401 135.82 50.0987 135.721 49.811C135.574 49.3809 135.64 49.4041 136.096 49.9418L136.65 50.5956L136.527 49.9418C136.459 49.5822 136.335 48.6996 136.252 47.9805C136.112 46.7778 136.131 46.7132 136.496 47.1769C136.714 47.4541 136.959 47.6149 137.039 47.5346C137.169 47.4047 136.628 44.6617 136.199 43.2755C136.057 42.8142 136.088 42.7959 136.474 43.1165C137.079 43.6186 137.169 43.4248 136.89 42.2201C136.757 41.6487 136.647 40.593 136.644 39.8738L136.64 38.5663L137.184 39.3508L137.729 40.1353L137.564 39.3508C137.026 36.7878 137.075 36.2384 138.015 34.3362C139.95 30.4215 141.878 27.5127 145.791 22.6022C149.314 18.182 151.262 14.8634 151.275 13.2617C151.283 12.3227 149.916 10.8533 148.535 10.3161C147.508 9.9163 147.5 9.9176 148.09 10.3881C149.274 11.3334 148.762 12.5965 146.49 14.3289C143.729 16.4343 142.065 16.7596 141.383 15.3284C140.352 13.1684 143.361 6.53189 145.371 6.53189C145.745 6.53189 146.051 6.47044 146.051 6.39565C146.051 5.95135 144.534 4.08368 143.913 3.76229C143.397 3.49529 143.174 3.18044 143.174 2.71626C143.174 1.48144 142.019 0.0130851 141.037 9.81178e-06C140.797 -0.00312825 139.78 0.746866 138.778 1.66658Z" fill="white"/>
</svg>
