<svg width="2884" height="112" viewBox="0 0 2884 112" fill="none" xmlns="http://www.w3.org/2000/svg">
<path fill-rule="evenodd" clip-rule="evenodd" d="M204.923 3.46778C205.734 2.92042 207.005 1.91505 207.747 1.23389C208.49 0.552742 209.242 -0.00243338 209.42 8.02141e-06C210.147 0.00977365 211.002 1.09669 211.002 2.01124C211.002 2.3545 211.167 2.5879 211.549 2.78565C212.009 3.02345 213.132 4.40626 213.132 4.73536C213.132 4.79054 212.906 4.83595 212.629 4.83595C211.141 4.83595 208.913 9.74952 209.676 11.3486C210.181 12.4082 211.413 12.1675 213.457 10.6089C215.139 9.32618 215.519 8.39112 214.641 7.69093C214.205 7.34278 214.211 7.3418 214.971 7.6377C215.994 8.03565 217.006 9.12354 217 9.81886C216.991 11.0044 215.548 13.4614 212.94 16.7339C210.042 20.3696 208.615 22.5234 207.183 25.4214C206.487 26.8301 206.45 27.2368 206.849 29.1343L206.971 29.7153L206.568 29.1343L206.165 28.5532L206.168 29.5215C206.17 30.0537 206.251 30.8355 206.35 31.2588C206.556 32.1504 206.49 32.294 206.042 31.9224C205.756 31.6851 205.733 31.6983 205.838 32.04C206.156 33.0664 206.556 35.0972 206.46 35.1934C206.431 35.2217 206.375 35.2095 206.306 35.166C206.232 35.1191 206.143 35.0357 206.058 34.9287C205.788 34.5855 205.773 34.6328 205.877 35.5234C205.939 36.0562 206.031 36.7095 206.081 36.9756L206.172 37.4595L205.762 36.9756C205.424 36.5776 205.375 36.5601 205.484 36.8789C205.557 37.0918 205.659 37.7886 205.711 38.4277C205.784 39.3281 205.755 39.5239 205.583 39.2988C205.41 39.0737 205.388 39.2266 205.484 39.9766C205.553 40.5088 205.652 41.1626 205.705 41.4287L205.802 41.9126L205.373 41.4287L204.944 40.9443L205.066 42.687C205.171 44.1875 205.151 44.3814 204.921 44.083C204.688 43.7778 204.653 43.8931 204.636 45.0396C204.625 45.7564 204.529 46.4307 204.421 46.5381C204.34 46.6196 204.284 46.6338 204.254 46.5796C204.235 46.5464 204.226 46.4883 204.226 46.4043C204.226 46.2236 204.139 46.0752 204.032 46.0752C203.831 46.0752 203.78 46.5645 203.835 47.9629C203.869 48.8154 203.533 49.1182 203.406 48.3501C203.349 48.0044 203.28 48.085 203.07 48.7446C202.898 49.2842 202.752 49.4893 202.655 49.3306C202.478 49.0444 202.387 49.2549 202.199 50.3833C202.073 51.145 201.792 51.3467 201.66 50.7705C201.612 50.5615 201.492 50.7471 201.348 51.2544C201.219 51.707 201.005 52.0772 200.872 52.0772C200.426 52.0772 199.903 53.3003 199.636 54.9688C199.138 58.0791 197.572 61.8467 195.757 64.3047C194.731 65.6924 194.018 67.126 193.676 68.4888C193.28 70.0635 192.186 78.9785 192.162 80.8286C192.128 83.3711 193.129 84.7783 195.268 85.1934C196.887 85.5078 197.098 85.6582 197.173 86.9331L208.47 89.2412L216.92 90.5278H222.77L240.31 85.3892H257.86L272.8 89.2402L289.05 87.5269L302.05 83.2402L322.19 75.54H331.29L335.84 74.2529L342.34 75.54L350.78 78.5298L357.28 81.9561L380.03 81.105L403.42 75.541L418.37 70.8281L428.12 69.541L437.86 61.8281L445.66 53.2642L461.91 44.2739L466.46 41.7002H475.55L489.2 46.8418L499.6 48.5552L506.75 51.981L528.84 46.8418L541.84 44.2778L555.49 45.1289L564.58 48.5552L578.23 60.981L591.88 65.2578L604.22 68.2578H617.22L624.37 66.5449H633.47L641.27 69.5449L647.76 71.6841L670.51 72.5449L686.1 70.832L691.95 69.5449L701.05 66.5449H703V66.7832H732.23L749.13 61.3569L764.08 59.1001L780.32 46.438L804.37 39.21L808.92 37.854L812.82 39.21L817.36 42.3682H826.46L835.56 46.437L840.11 50.5059L845.96 52.7632L857.01 56.832H871.3L880.4 54.1191H894.7L908.99 60.4561L918.09 64.5151L925.89 66.7822L936.29 61.356L949.93 59.0991L956.43 56.832L980.48 55.4761L987.62 59.1001L1006.47 63.169L1014.92 64.5161H1020.77L1038.31 59.1001H1055.86L1070.8 63.1699L1087.05 61.3579L1100.05 56.833L1120.19 48.7041H1129.29L1133.84 47.3482L1140.34 48.7041L1148.79 51.8618L1155.28 55.4761L1178.03 54.5762L1201.42 48.7051L1216.37 43.7251L1226.12 42.3691L1235.86 34.2402L1243.66 25.2002L1259.91 15.7002L1264.91 12L1273.55 12.9902L1287.2 18.415L1297.6 20.2149L1304.75 23.8389L1326.84 18.4131L1339.84 15.7002L1353.49 16.6001L1362.58 20.2178L1376.23 33.3252L1389.88 37.8501L1402.22 41.0181L1416.22 64.4038L1423.37 62.5918H1432.47L1439.23 67.5518L1442 67.752L1448.37 66.54L1452.92 65.2529L1456.82 66.54L1461.36 69.54H1470.46L1479.56 73.3911L1484.11 77.252L1489.96 79.3911L1501.01 83.2422H1515.3L1524.4 80.6782H1538.7L1552.99 86.668L1562.09 90.5288L1569.89 92.668L1580.29 87.5288L1593.93 85.3901L1600.43 83.2412L1624.48 81.9541L1631.62 85.3901L1650.47 89.2412L1658.92 90.5278H1664.77L1682.31 85.3892H1699.86L1714.8 89.2402L1731.05 87.5269L1744.05 83.2402L1764.19 75.54H1773.29L1777.84 74.2529L1784.34 75.54L1792.78 78.5298L1799.28 81.9561L1822.03 81.105L1845.42 75.541L1860.37 70.8281L1870.12 69.541L1879.86 61.8281L1887.66 53.2642L1903.91 44.2739L1908.46 41.7002H1917.55L1931.2 46.8418L1941.6 48.5552L1948.75 51.981L1970.84 46.8418L1983.84 44.2778L1997.49 45.1289L2006.58 48.5552L2020.23 60.981L2033.88 65.2578L2046.22 68.2578H2059.22L2066.37 66.5449H2075.47L2083.27 69.5449L2089.76 71.6841L2112.51 72.5449L2128.1 70.832L2133.95 69.5449L2143.05 66.5449H2145V66.7832H2174.23L2191.13 61.3569L2206.08 59.1001L2222.32 46.438L2246.37 39.21L2250.92 37.854L2254.82 39.21L2259.36 42.3682H2268.46L2277.56 46.437L2282.11 50.5059L2287.96 52.7632L2299.01 56.832H2313.3L2322.4 54.1191H2336.7L2350.99 60.4561L2360.09 64.5151L2367.89 66.7822L2378.29 61.356L2391.93 59.0991L2398.43 56.832L2422.48 55.4761L2429.62 59.1001L2448.47 63.169L2456.92 64.5161H2462.77L2480.31 59.1001H2497.86L2512.8 63.1699L2529.05 61.3579L2542.05 56.833L2562.19 48.7041H2571.29L2575.84 47.3482L2582.34 48.7041L2590.79 51.8618L2597.28 55.4761L2620.03 54.5762L2643.42 48.7051L2658.37 43.7251L2668.12 42.3691L2677.86 34.2402L2685.66 25.2002L2701.91 15.7002L2706.91 12L2715.55 12.9902L2729.2 18.415L2739.6 20.2149L2746.75 23.8389L2768.84 18.4131L2781.84 15.7002L2795.49 16.6001L2804.58 20.2178L2818.23 33.3252L2831.88 37.8501L2844.22 41.0181L2858.22 64.4038L2865.37 62.5918H2874.47L2881.23 67.5518L2884 67.752V112H1442H0V67.752L6.37012 66.54L10.9199 65.2529L14.8201 66.54L19.3601 69.54H28.46L37.5601 73.3911L42.1101 77.252L47.96 79.3911L59.01 83.2422H73.3L82.3999 80.6782H96.7L110.99 86.668L120.09 90.5288L127.89 92.668L135.445 88.9346C135.144 88.5083 134.911 88.0689 134.91 87.9146C134.907 87.6426 134.882 87.6401 134.701 87.8955C134.472 88.2173 134.593 86.1411 134.843 85.459C134.977 85.0942 134.972 85.0942 134.559 85.457C134.029 85.9219 134.018 85.6099 134.526 84.5581C134.739 84.1172 134.913 83.7158 134.913 83.6665C134.913 83.6167 134.739 83.7334 134.526 83.9263C134.377 84.0606 134.286 84.1416 134.229 84.1646C134.142 84.1992 134.138 84.0972 134.138 83.8408C134.138 83.6016 134.322 83.1475 134.547 82.832C135.043 82.1353 134.905 81.9209 134.241 82.356C133.87 82.5991 133.721 82.6113 133.795 82.3994C133.856 82.2222 134.073 81.8897 134.442 81.4053C135.225 80.3799 135.223 80.1416 134.438 80.7593L133.904 81.1797L134.208 80.5913C134.375 80.2681 134.75 79.7207 135.041 79.375L135.57 78.7466L134.951 79.0664C134.192 79.4585 134.184 79.3745 134.88 78.3462C135.72 77.106 135.748 77.042 135.389 77.1797C135.206 77.25 135.402 76.8643 135.849 76.2739C136.449 75.4805 136.677 74.958 136.847 73.9854C137.131 72.3491 137.218 72.207 138.646 71.0366C140.783 69.2837 142.216 67.7608 142.854 66.5645C143.43 65.4829 143.498 65.1528 143.762 62.1729C143.919 60.4004 144.196 58.0576 144.377 56.9658C144.485 56.3169 144.573 55.7378 144.621 55.375C144.654 55.1279 144.667 54.9815 144.656 54.9815C144.627 54.9815 144.121 55.2105 143.531 55.4898C141.948 56.2393 139.773 58.9868 139.758 60.2573C139.756 60.3701 139.723 60.4707 139.673 60.5322C139.641 60.5723 139.602 60.5962 139.56 60.5962C139.453 60.5962 139.366 60.4219 139.366 60.209C139.366 59.9961 139.286 59.8218 139.189 59.8218C139.007 59.8218 137.383 62.0151 137.182 62.5322C137.096 62.7515 137.036 62.7153 136.935 62.3828C136.761 61.8091 136.534 62.001 135.487 63.6074C135.04 64.294 134.631 64.8555 134.578 64.8555C134.555 64.8555 134.541 64.8076 134.536 64.728C134.53 64.6211 134.54 64.4575 134.567 64.2749C134.614 63.9551 134.598 63.6939 134.531 63.6939C134.496 63.6939 134.366 63.794 134.189 63.9522C134.037 64.0889 133.85 64.2686 133.658 64.4649C132.908 65.2329 132.403 65.4033 133.074 64.6621C133.221 64.499 133.314 64.3233 133.317 64.2168C133.318 64.1836 133.31 64.1567 133.293 64.1392C133.219 64.0654 132.555 64.606 131.815 65.3399C130.508 66.6367 129.85 66.9863 130.665 65.9502C131.224 65.2398 130.875 65.3071 129.962 66.0864C129.099 66.8242 127.733 67.5659 127.24 67.5659C126.958 67.5659 126.978 67.4912 127.362 67.082C127.612 66.8159 127.769 66.5982 127.711 66.5982C127.653 66.5982 126.938 66.8159 126.122 67.082C125.032 67.438 124.519 67.5825 124.5 67.5274C124.49 67.4966 124.631 67.4043 124.911 67.2529C125.213 67.0894 125.417 66.9111 125.363 66.8579C125.31 66.8042 125.08 66.8599 124.854 66.981C124.454 67.1948 122.349 67.6714 120.973 67.8594L120.295 67.9517L120.915 67.7559C121.709 67.5049 121.883 67.2329 121.205 67.3027C118.712 67.5601 117.386 67.4609 118.746 67.1191C118.892 67.0825 118.857 67.0488 118.686 67.0298C118.605 67.021 118.495 67.0151 118.359 67.0137C117.933 67.0093 117.193 66.9248 116.713 66.8257C116.222 66.7246 116.042 66.6763 116.126 66.6484C116.167 66.6353 116.267 66.627 116.423 66.6196C117.627 66.563 117.509 66.2686 116.234 66.1499C114.755 66.0117 114.254 65.8027 114.973 65.6231C115.219 65.5615 115.282 65.5166 115.1 65.4483C114.983 65.4038 114.763 65.3496 114.424 65.2749C113.856 65.1494 113.203 64.9439 112.972 64.8179L112.551 64.5889L113.035 64.459C113.467 64.3438 113.42 64.3032 112.596 64.0845C111.698 63.8467 111.205 63.5122 111.717 63.4883C111.856 63.4819 111.534 63.2642 111.002 63.0039C110.282 62.6524 110.17 62.5493 110.566 62.6016C111.371 62.708 111.208 62.4224 110.131 61.8359C109.066 61.2564 108.953 61.0483 109.579 60.8169C109.973 60.6709 109.961 60.6431 109.336 60.2612C108.272 59.6108 107.245 59.2466 106.086 59.1084L105 58.9785L106.162 58.4385C107.81 57.6729 110.532 56.8091 112.558 56.4092C114.547 56.0171 120.521 55.9258 125.135 56.2178C128.227 56.4126 129.725 56.2358 132.426 55.3565C136.007 54.1909 138.836 52.4116 142.078 49.2876C146.665 44.8667 151.65 42.3115 161.612 39.2754C164.975 38.2505 166.077 37.7734 167.696 36.6406C169.059 35.6865 169.089 35.6548 168.519 35.7637C167.838 35.8941 167.893 35.6973 168.65 35.2993C169.261 34.978 169.266 34.9658 168.825 34.8574C168.647 34.8135 168.622 34.7549 168.803 34.6514C168.986 34.5469 169.379 34.3965 170.035 34.169C171.732 33.5806 172.202 33.2319 171.07 33.3999C170.518 33.4824 170.559 33.4375 171.409 33.0308C172.273 32.6177 172.325 32.5591 171.893 32.4888C171.521 32.4282 171.739 32.3003 172.836 31.9365C173.386 31.7539 173.717 31.6304 173.868 31.5425C174.024 31.4522 173.991 31.3989 173.814 31.3574C173.467 31.2754 173.646 31.1714 174.614 30.896C176.463 30.3691 176.911 30.2051 176.443 30.2266C175.405 30.273 175.372 30.1314 176.346 29.812C176.543 29.7471 176.711 29.6856 176.84 29.6318C177.093 29.5259 177.195 29.4507 177.072 29.4439C176.346 29.4028 176.815 29.1108 178.472 28.5708C179.424 28.2608 180.163 27.9439 180.115 27.8667C180.09 27.8247 179.97 27.7681 179.802 27.7134C179.66 27.667 179.484 27.6221 179.301 27.5869L178.572 27.4483L179.831 27.042L181.089 26.6358L180.315 26.5215L179.54 26.4072L180.702 26.1401C182.725 25.6748 183.609 25.0884 184.77 23.4439C185.934 21.7944 187.575 18.7969 187.575 18.3218C187.575 18.1304 187.377 17.9282 187.016 17.7344C186.685 17.5566 186.217 17.3862 185.639 17.2378C185.16 17.1152 184.643 16.9722 184.491 16.9199C184.331 16.8652 184.961 16.4028 185.995 15.8164C188.436 14.4326 190.749 12.7554 193.367 10.4702C196.149 8.04298 197.139 7.48292 198.759 7.42384C199.964 7.3794 199.983 7.36964 201.709 5.92139C202.665 5.11964 204.111 4.01563 204.923 3.46778ZM139.145 87.3945L151.64 85.4356C151.742 84.5698 151.724 84.5742 151.364 84.8999C150.937 85.2861 150.902 85.1743 151.163 84.2637C151.375 83.5244 151.277 83.4756 150.774 84.0713C150.408 84.5039 150.408 84.5005 150.697 83.6524C150.857 83.1826 151.085 82.6816 151.203 82.5396C151.355 82.3555 151.356 82.2808 151.207 82.2808C151.091 82.2808 150.899 82.4624 150.78 82.6846C150.387 83.419 150.385 82.9326 150.777 82.0176C151.186 81.0645 151.077 80.8667 150.498 81.5073C149.917 82.1489 149.953 81.8032 150.583 80.687C151.239 79.5254 151.325 79.2056 150.886 79.5698C150.801 79.6406 150.724 79.688 150.671 79.7066C150.624 79.7232 150.595 79.7168 150.595 79.6841C150.595 79.646 150.635 79.5161 150.698 79.3433C150.749 79.2031 150.814 79.0342 150.886 78.8628C151.046 78.48 151.18 77.8076 151.185 77.3682C151.198 76.2344 151.53 75.6235 152.56 74.8438C153.619 74.0415 154.855 72.2671 155.44 70.7095C155.89 69.5108 156.404 67.105 156.404 66.1939C156.404 65.6397 156.153 65.4458 155.921 65.8208C155.857 65.9258 154.757 66.8096 153.477 67.7852C152.197 68.7603 150.655 70.1265 150.05 70.8208C147.083 74.2266 146.012 75.1089 142.706 76.877C142.087 77.207 141.697 77.3877 141.402 77.669C140.816 78.229 140.613 79.189 139.759 82.5269C139.072 85.2139 138.837 86.4751 139.145 87.3945ZM155.621 84.1699L158.43 83.2412L178.096 82.1885C178.115 81.9238 178.231 81.585 178.373 81.398C178.788 80.8491 178.731 80.6157 178.282 81.022C177.927 81.3438 177.895 81.3452 177.895 81.0444C177.895 80.8638 178.069 80.3745 178.282 79.9575C178.763 79.0132 178.791 78.647 178.354 79.0103C178.069 79.2466 178.052 79.2066 178.179 78.5982C178.257 78.2275 178.456 77.7066 178.621 77.4404L178.923 76.9566L178.506 77.3252C177.946 77.8198 177.964 77.4732 178.576 75.9883C179.131 74.6421 179.168 74.3965 178.766 74.7295C178.351 75.0747 178.389 74.6909 178.863 73.7617C179.373 72.7617 179.351 72.6309 178.766 73.1807C178.181 73.731 178.159 73.5073 178.669 72.1665C179.133 70.9478 179.129 70.9819 178.766 71.1211C178.565 71.1983 178.469 71.2339 178.522 71.0591C178.57 70.9004 178.74 70.5674 179.064 69.9336L179.654 68.7832L179.262 67.7905C178.84 66.7188 177.241 64.0493 176.339 62.9111L175.781 62.207L173.718 62.7471C172.583 63.044 171.613 63.3281 171.563 63.3784C171.537 63.4043 171.417 63.6426 171.245 64.0039C171.082 64.3477 170.871 64.8023 170.652 65.2905C169.407 68.0542 167.835 70.3247 165.723 72.4077C163.543 74.5596 161.454 76.0044 158.278 77.5591C157 78.1841 155.895 78.8545 155.775 79.0762C155.655 79.3003 155.555 80.5274 155.547 81.8945C155.54 83.0791 155.54 83.6919 155.621 84.1699ZM178.494 82.1675L178.741 82.1543C178.677 82.0786 178.592 82.0811 178.494 82.1675ZM183.16 82.2817L189.62 85.3901L189.928 85.4531C189.164 84.229 188.543 82.8667 188.543 82.1592C188.543 81.9458 188.517 81.8208 188.452 81.7705C188.406 81.7344 188.341 81.7363 188.253 81.77C188.029 81.856 187.962 81.7256 187.962 81.1968C187.962 80.8208 188.062 80.3223 188.184 80.0899C188.405 79.6699 188.403 79.6694 187.991 80.0357C187.495 80.4761 187.431 80.1377 187.866 79.3765C188.229 78.7412 188.223 78.5884 187.844 78.7344C187.686 78.7949 187.614 78.794 187.609 78.6943C187.606 78.6328 187.63 78.5337 187.674 78.3892C187.753 78.1338 187.938 77.689 188.084 77.4019C188.465 76.6524 188.404 76.4902 187.953 77.0532L187.565 77.5371L187.694 76.9566C187.764 76.6367 187.984 76.0322 188.183 75.6128C188.637 74.6533 188.634 74.5879 188.156 75.02C187.646 75.4819 187.664 75.2275 188.195 74.4819C188.542 73.9946 188.56 73.9087 188.292 74.0166L187.655 74.273C187.422 74.3672 187.474 74.145 187.874 73.3535C188.163 72.7793 188.568 72.0703 188.775 71.7774C189.211 71.1587 189.121 71.1128 188.395 71.5835L187.873 71.9224L188.402 71.0166C189.014 69.9678 189.031 69.8897 188.64 69.8897C188.518 69.8897 188.436 69.9024 188.401 69.8677C188.334 69.8013 188.438 69.5625 188.752 68.7344C189.238 67.4575 189.161 66.4595 188.462 64.9312C187.667 63.1968 187.297 62.7769 186.644 62.8731L186.08 62.9556L185.766 65.3091C185.592 66.6035 185.153 69.1875 184.788 71.0513C183.956 75.3101 183.241 80.3008 183.16 82.2817Z" fill="#2A3959"/>
</svg>
